<?xml version="1.0" encoding="utf-8"?>
<!-- Generator: Adobe Illustrator 16.0.4, SVG Export Plug-In . SVG Version: 6.00 Build 0)  -->
<!DOCTYPE svg PUBLIC "-//W3C//DTD SVG 1.1//EN" "http://www.w3.org/Graphics/SVG/1.1/DTD/svg11.dtd">
<svg version="1.1" id="Layer_1" xmlns="http://www.w3.org/2000/svg" xmlns:xlink="http://www.w3.org/1999/xlink" x="0px" y="0px"
	 width="1000px" height="1000px" viewBox="0 0 1000 1000" enable-background="new 0 0 1000 1000" xml:space="preserve">
<metadata><?xpacket begin="﻿" id="W5M0MpCehiHzreSzNTczkc9d"?>
<x:xmpmeta xmlns:x="adobe:ns:meta/" x:xmptk="Adobe XMP Core 5.3-c011 66.145661, 2012/02/06-14:56:27        ">
   <rdf:RDF xmlns:rdf="http://www.w3.org/1999/02/22-rdf-syntax-ns#">
      <rdf:Description rdf:about=""
            xmlns:dc="http://purl.org/dc/elements/1.1/">
         <dc:format>image/svg+xml</dc:format>
         <dc:title>
            <rdf:Alt>
               <rdf:li xml:lang="x-default">Print</rdf:li>
            </rdf:Alt>
         </dc:title>
      </rdf:Description>
      <rdf:Description rdf:about=""
            xmlns:xmp="http://ns.adobe.com/xap/1.0/"
            xmlns:xmpGImg="http://ns.adobe.com/xap/1.0/g/img/">
         <xmp:MetadataDate>2013-11-11T15:28:01-06:00</xmp:MetadataDate>
         <xmp:ModifyDate>2013-11-11T15:28:01-06:00</xmp:ModifyDate>
         <xmp:CreateDate>2013-11-11T15:28:01-06:00</xmp:CreateDate>
         <xmp:CreatorTool>Adobe Illustrator CS6 (Macintosh)</xmp:CreatorTool>
         <xmp:Thumbnails>
            <rdf:Alt>
               <rdf:li rdf:parseType="Resource">
                  <xmpGImg:width>256</xmpGImg:width>
                  <xmpGImg:height>80</xmpGImg:height>
                  <xmpGImg:format>JPEG</xmpGImg:format>
                  <xmpGImg:image>/9j/4AAQSkZJRgABAgEASABIAAD/7QAsUGhvdG9zaG9wIDMuMAA4QklNA+0AAAAAABAASAAAAAEA&#xA;AQBIAAAAAQAB/+4ADkFkb2JlAGTAAAAAAf/bAIQABgQEBAUEBgUFBgkGBQYJCwgGBggLDAoKCwoK&#xA;DBAMDAwMDAwQDA4PEA8ODBMTFBQTExwbGxscHx8fHx8fHx8fHwEHBwcNDA0YEBAYGhURFRofHx8f&#xA;Hx8fHx8fHx8fHx8fHx8fHx8fHx8fHx8fHx8fHx8fHx8fHx8fHx8fHx8fHx8f/8AAEQgAUAEAAwER&#xA;AAIRAQMRAf/EAaIAAAAHAQEBAQEAAAAAAAAAAAQFAwIGAQAHCAkKCwEAAgIDAQEBAQEAAAAAAAAA&#xA;AQACAwQFBgcICQoLEAACAQMDAgQCBgcDBAIGAnMBAgMRBAAFIRIxQVEGE2EicYEUMpGhBxWxQiPB&#xA;UtHhMxZi8CRygvElQzRTkqKyY3PCNUQnk6OzNhdUZHTD0uIIJoMJChgZhJRFRqS0VtNVKBry4/PE&#xA;1OT0ZXWFlaW1xdXl9WZ2hpamtsbW5vY3R1dnd4eXp7fH1+f3OEhYaHiImKi4yNjo+Ck5SVlpeYmZ&#xA;qbnJ2en5KjpKWmp6ipqqusra6voRAAICAQIDBQUEBQYECAMDbQEAAhEDBCESMUEFURNhIgZxgZEy&#xA;obHwFMHR4SNCFVJicvEzJDRDghaSUyWiY7LCB3PSNeJEgxdUkwgJChgZJjZFGidkdFU38qOzwygp&#xA;0+PzhJSktMTU5PRldYWVpbXF1eX1RlZmdoaWprbG1ub2R1dnd4eXp7fH1+f3OEhYaHiImKi4yNjo&#xA;+DlJWWl5iZmpucnZ6fkqOkpaanqKmqq6ytrq+v/aAAwDAQACEQMRAD8A9U4q7FXYq7FXYq7FXYq7&#xA;FXYq7FXmfmD864bC/ubHTtFn1CW2le3kb1AgEkbFWBVVlcbqacgK5TLNXR6nSezJyQE55IwEgDy6&#xA;H5Bil/8AnZ58mZkt7Cy00V2Fy3GTp/xdJGD/AMDkDmk7bF7M6QbylOfu5f7EH70ui/N/8y1cv9Zs&#xA;pwSKQf6MxNdwFWNw5yPiycmXs7oSKqY8/V+kUzPyf+edpfXq6b5ktV0y7Zgi3KchBzJpxkV/ij+Z&#xA;JHjTLIZr2LpO0fZaWOPHglxx7uvwrm9Vy95JhH5zTyweQL2WI0cSQDcAggyqCCDsQRsQeuV5fpd9&#xA;7NwEtZEHul9zx78pliH5o6QYk9NGWZwlSQpeykYgE70qdq/ecx8X1B7P2gJ/IZL8v92H0xmY+XOx&#xA;Vp3REZ3YKigszMaAAbkknFIBJoPEtX/PbVk1u9l0uG3k0K3/AHVv6yOZJXoaMpVlpyIrv0UfzdcY&#xA;5je3J7nT+yuM4ojIZDKdzXID5dPv8mf/AJa+fv8AGOl3NzJbLaXNpKIpYkcupVlDK4qFpU8hT265&#xA;bjnxB57trsn8lkEQeKMhf7GX5Y6Z2KuxV2KuxV2KuxV2KuxV2KuxV2KuxV2KuxV2KpJq/nfyjo8h&#xA;i1HVbeCZftQ8+cg+aJyYfdkTMDq5+n7L1OYXCEiO/p8ygbX80PIFzKIo9btwx2Bk5RL/AMFIqr+O&#xA;DxI97fPsPWRFnHL4b/cyaGaGaJZYXWWJxVJEIZSPEEbHJurlExNEUV+LF8z/AJk6e1n+YPmG1UcU&#xA;vYzcBj3BRLpv+HjIzDyD1F9R7FzcejxS/mmvtMfuLLfyl/LnyV5g8sR6nqNtJdXizSwzqZXSMFSC&#xA;tBGUP2WXvk8WOJFl0/tB2zqtPnOOBEY0CNhf2+bM9R/Jf8v7y2aKPT2s5SDwuIJZA6k+zs6H6Vy0&#xA;4oukw+0ushKzLiHcQP0UXh3mvyvf6Drknl2+b1yAH0u7oQWRq+mo6/C5HEr0VtwaV5Y0o0ae80Gu&#xA;hqMQzw2/nD7/AJc76j4V2b8kPNE2s+UzZXTl7vSXEHImpMLCsRPyoV/2OZGGVh4n2n0Iw6jij9OT&#xA;f49f1/FEfnd/5Lu//wCMlv8A8nlxzfS1+zH+Ox90vuLyL8pf/Jn6L/xjk/6gXyjF9Qex9oP8Qye8&#xA;f7sPpjMx8udiryf86vO8kUS+UtKk/wBNvFrqUimnpwEV4E/s8h8T+CexyjNPoHr/AGZ7LBP5nIPT&#xA;H6fM9/w6efueMpCJYpLhY2fStN4gmhAeSU0XlT7JlKV61CrSpoMx3tjKiBf7yf2Afq+8+b038jNR&#xA;S383avpwAjh1G2S8hiHRaEOiD5JOfuy7Cdy8t7U4TLTY58zCRifuv5xe45kvBuxV2KuxV2KuxV2K&#xA;uxV2KuxV2KuxV2KuxV2KvEvzR/NHULrUJ/Lnlyc29vblk1HUUbiWK7OquN1RTszDcnYbfaxsmToH&#xA;uuwuwoQgM+cWT9Mfu26k/Z93P/LflLVdfmZNF0x9S9M0uLqdjFACRXs0dD83JP8AKMqjEnk9Fre0&#xA;MenF5Z8F8gNz+n7vinGtfld5u0y1a6udBiltUHKZ7GZ3kVR1PFnkPzPA5I4yOjhabt3TZZcMcpEu&#xA;nEBX3D7wgPJ/nbWfKd0l3p0zXWkOwF5p8hoN+oI3CN/K69e/dcEJmPJyO0ezMWrjwzHDk6S/HMd4&#xA;/tfS2ha1Ya3pNtqlg/qWt0nNCdiD0ZWHZlYEHMyJsW+YarTTwZDjmPVF4x+eNikHnnR71jwgvYFg&#xA;nYdwkhWT/knKBmPmHqD23svl4tJkh1jKx8tvtCa/8463zHT9a016gwTRThD4yqUbb/nkK4cB5hxP&#xA;bHF68eQdQR8t/wBL2DMh4x4v/wA5ExRxS6BfRnhdA3CBh9ohDGyn/YsfxzHz9HuPY6RIywP0+n9K&#xA;n+Q37nzP5jtoxwhAFE8OErKv3Bjgw8yn2r3wYpHn+sBmP53f+S7v/wDjJb/8nlyzN9LpvZj/AB2P&#xA;ul9xeRflL/5M/Rf+Mcn/AFAvlGL6g9j7Qf4hk94/3YfTGZj5cx7z15vtPKvl+bUpqPcH93Z25P8A&#xA;eTMPhHyHVvbITnwi3Y9ldnS1eYQHLmT3D8cnzLdT399eMZpPW1fV5A9xK5C0ErAqpZqKvOoY9gtB&#xA;XqMwzu+p44wxx2FY8Y2+H6vvvye26p5AsNM/J7UNLs2W4nWH69Pdpv6s0JEjFSO3FOC+3vmSYVCn&#xA;hMHa08vaUckthfCB3A7fpsvLvy61RbDzn5bveiyubGdz3eQtEK+ypNH92UYzRD1fbODxNLmh3DiH&#xA;w3+8SfT+Zr5WhdU1Ox0rT59Qv5RBaWyF5pG7Ae3ck7AdzgJptwYJ5ZiEBcpcngHmz83vM+vzTR6X&#xA;OdF0ZG4iRWKysOxeRQXqf5Y/xpXMWWUnlsH0TQez2n04ByDxcv2fAcvjL7OTAppLSaUSzXlzLKT8&#xA;crRhiNwagmWrd/DKnoIiQFCMQPf/AMdZF5d88+bNFlRtH1aS6hXrp11VgQOtI2LL/wAi35ZOMyOT&#xA;rdZ2Xp84/ewET/Oj+v8AWKe7/l9+Ymmeb7JjGv1bU7cA3VkTWg6eoh/aQn7u/auTDIJPAdr9j5NH&#xA;Pf1QPKX6D5styx07sVdirsVdirsVQup6rp2l2Ul7qNwlrax/blkNBv0HuT4DATTdgwTyyEIAyke5&#xA;ERSxTRJLE4kikUPG6mqsrCoII6gjC1SiQaPMJP501aTSPKerajEeM9vbSGFvCRhxQ/QxGRmaBc3s&#xA;zTjNqIQPIyF+7q+W7CwmvJNO0yI8bjV50X1DvUPL6MYPf7fIkd9vDMIDo+r5cogJ5Dyxx/RZ+yvt&#xA;fV+haJp+iaVb6Zp8YitrdQooBVj+07EdWY7k5nRFCnyLVaqefIckzcj+KR+Fx3z5+cHlqy0Hzhb3&#xA;sCCHTdbVjdRKPhDhgs5UdP21ceDb5i5Y0fe+jezutnqNMYHeeLl/vf0j3Mj/AOcfNSuUi1rQ7gkf&#xA;VJUmjQ/ss3KOUb+6LksB5h1ntfhiTjyj+IEfpH3lW/5yJ0/1NB0q/Aqba6aEnwE8fL9cIw5xsw9j&#xA;81Zpw/nRv5H9rHvyX1EQfmFqETkJHqVq8yAnuxS4T7o2bIYT6nZe0uHi0USOcJAffH73rus+fPKG&#xA;jRO99qturJ/uiNxLKT4CNOTfhmQZgPG6bsrU5jUIS99UPmXgXnvzrL5p1xNYkiNvpViCmmW0lC0j&#xA;Bq1IGx5MAZKbACla0riznxG30PsrswaTF4QN5JfUR0/HTvO/J6T+Qnlq5sNCutau1Ky6sy+gG6+j&#xA;FWj7/wA7MfoAOW4I0LeX9q9bHJmjijyx8/eenwTf87v/ACXd/wD8ZLf/AJPLks30uJ7Mf47H3S+4&#xA;vIvyl/8AJn6L/wAY5P8AqBfKMX1B7H2g/wAQye8f7sPpWeeGCCSeZxHDEpeWRjRVVRVmJ8AMzHzC&#xA;MTIgDcl8zef/ADm3mjXZdTav6HsSYdKtn2Dt15Mp/m2d9unFe4OYc58Rt9R7J7N/K4Rj/wApLeZ7&#xA;vxyHnZUf+VeecDpkGpNok9+L9frDTKxaUK5qtERi3JvtEsp6j3weGaumf8sabxDj8SMODby+fKum&#xA;xS6JptEvU9ePUdJCsDNbyAn1APtKyn6tsw2INcHJyZAZ4bHHk8+7/dJdbztHZmSFz6tlcpNb7bgM&#xA;CGYiv80ceRcmcblR5SiQfx8ZPrzTr2K/0+1vov7q6hjnj/1ZFDD8DmeDb43mxHHOUDziSPk8d/Pz&#xA;Xri41DTfK1s/FHC3N1vsWdikQanZaMx+YyjPLo9p7J6SMYT1EvcPvPz5MW/LHyND5w1uR7oMmg6Y&#xA;BzjB4tIWrwjqOhahZyPltUUrxw4j5O27b7UOjxAR/vZ/Z3n9AfQljoGh2FsttZWFvBAooI0jUD6d&#xA;tz7nMsRAfOcury5JcUpSJ97CfzB/KLRdasZr3R7dLHW4lLxeiBHHMRvwdRRQT2YU365VPEDy5u97&#xA;I9ocuCYjlJniPfuR5j9XyeNeU9R1jSvNWl39hBNPqBI+tWkKlnkjLlHUoorVkFdx1o2Y8SQXtdfh&#xA;xZdPOEyBDoT0PMfI/qfVWZz5K7FXYq7FXYqxjzv+YOheU7Pndv61/ItbawjI9R/dv5E/yj9FchOY&#xA;i7XszsjLq5VHaHWXT9p8ngfmLzLq/mnVoZtflYRs1bbS4DxEUZ/a+KoX4d6tVm9gQcxZSMju+haP&#xA;RY9JjIwjfrI9T+PgPfb1z8hdQvLvyPJHcymVbO8kt7fluViEccgWvgGkNMvwn0vHe1eGMNWDEVxQ&#xA;BPvsj9DI/wAyLCS+8i61bxgs/wBWaRVHU+jSWg/4DJ5BcS6zsbKMerxyP86vnt+l826Lqo0/UvL+&#xA;qt/dabcKsijclYp/Xb/glloPkcwwaIL6dqdP4kMuPrOP3x4f0PrOGaKeFJoXEkUqh45FNVZWFQQR&#xA;2IzPfIJRMSQdiF+LF4X+fWo22o+ZdH0WOQc7NHe5cbiP6wyV5eHFIuZ9jmNmNkB772Uwyx4MmUj6&#xA;jt58N/pNIz/nH+Ka61PzDq7rxSUxoPAtI7yMB/q7ffhwcyWj2tkIY8WPuv7KDNPzj0/67+Xup0FZ&#xA;Lb07hPb05F5H/gC2WZR6XSezmbg1sP6Vj5j9dPnOEQXzxAW9zd3fprG8VvRf7scVI+GUn4FX9kb5&#xA;ic30qV473jGN9fP5dbT/AEzyB50vmUWHluSIE1Se9BUhfE+uY4m/5F/LJCBPR1+ftbSw+vMD5R/4&#xA;7Z+16H5T/IordpqPmy7F7KhBWxiLGM8fsiSRgCwH8qgD3Iy2OHveb1/tTcTDTR4R/OPP4D9L11ER&#xA;EVEUKigKqqKAAbAADMh44kk2Uh89eV5PM/lu40eO4Fq07RsJmUuB6bh/sgr1p45CceIU7DsrXDS5&#xA;xlI4qvb3hiXkn8n7ny9rtnqdzqaXgsfU+rosRRh6sbxleRdvg/eFqU69KVNYQxUbdx2n7RR1OKWO&#xA;MOHjq975EHu57fL4VMfOPlp/Mmhy6SL6SwjnI9WSJQxZRvwYGnwk0rQ5ZONinSdna0abKMnCJkd/&#xA;3vP9E/IaK01S1fUr+PUNNtJDMsQjMbSE0/dupZ148gD18R32qGHfd6PVe1ZnjkMcTCchXO68xy3/&#xA;AB0363l7xy2WGKaMxyoskbbMjgMp+YOKYyINjYvmHz5pKaZ5913TIlEUN5yeFVFB+9C3KIg2G8gC&#xA;DMKYqRD6p2VqDl0eLIdzHn8Lifs3e3flBqRvvIGm8yfWtA9rKD2MLkKP+RfHMnEbi8L7Q4fD1k+6&#xA;VS+Y/Xbyj84Ypl/Mq459LizUW48ecDRqB85Acoy/U9d7OyB0IrpPf/TA/czj/nHuS1PlG9jjp9ZW&#xA;+czj9qjRR8D8tjT6ctwcnQ+14l+ZiT9PBt8zb1HLnlHYqhrPS9NsnleztYrd525TPEioXPixA3wA&#xA;ANuTPOYAlImuVlfe3ltZWk15dSCK2t0aSaVtgqqKknCTTHHjlOQjEXI7B4Nr/wCdfm/VL+UeXCmm&#xA;6bE1ElkWEuw3oZXn5RoWpso+85iyzE8n0DSezOmxQHj+uZ7r+wR3PvVtA/OzzZp8qtrqw6vpxIEs&#xA;9v6azR12rSLivfoyivY4xzEc2Gr9mdPkH7m8c+43R+f6Dt3PbNF1rTda02HUtNmE9pOKo46g91Yd&#xA;mHcZkggiw8NqdNPBMwmKkHnfn3844LGSTSPK/G+1XdZbsUaCGg+KnZ2Xqf2V713GVTy1sHpOyfZw&#xA;5AMuo9OPu6n9X3l5Hp1hr3mLXGisBJq2uXB53F855RxV2Lcm2+HpzPToo+ycxwCT5vY5suHTYrnW&#xA;PEOUep/Hd8+oRPmfypJ5V8zQ2DXIvbpbNru6cfCvqFJHZRWpoFXqdz19sMo8JatDrxq8BnXDHi4R&#xA;7rD1n/nH+NV8kTsOsl/KzfP04l/41y/B9LyHtab1Y/qD75PS2VWUqwBUihB3BBy55cF80/mP5Fuv&#xA;KerTtHC8vly/blBIvSNtysZNCFdKnjX7S198w8kOE+T6h2N2pHV4xZrNDn5+fuPXuPwR/kb80PMX&#xA;l61TT0hXXdKU/wCjxKxW5iB34haOwUeBUivRqYYZCPNx+1Ow8OpkZk+Fk6/zT93333hkuufndr5t&#xA;jFpugPp8zii3moNxjQnwDrGlfCrfRkzmPQOr0vsxh4rnlEx3R5/pP2PKraDVta1VrWxMmp61qLH1&#xA;7gVJ+M1ajNQgfzuabbfZ60bk+b1s5Y8GPinUMUOQ/H2D48+XpfyJ5St/KvlyDS4yJJ6mW8mG3OZ6&#xA;cj8gAFHsMzIR4RT5f2r2hLV5zkPLkB3D8bp7NDDPE8M8aywyArJG4DKwPUEHYjJuBGRibBohq3tr&#xA;a2jEVvEkMY6JGoVfuFMaWc5SNyNlUxYuxV2KuxV2KuxV2KuxV2KpJrnknyprsvrarpkNzPxC+uQU&#xA;k4joOaFW2+eRMAebnaXtPUYBWOZiO7p8iiNA8u6XoNpJaaajRwySGVg7tIeRUL9piSdlA3wxiBya&#xA;9XrMmokJTO4FdzAfzx8n3Woafb+YtOUm90oEThPtGCvMOP8AjE1T8ifDKs0L3eh9l+0Y45nBP6cn&#xA;L3/teWeS/OWo+V9UbVNMQT2c4A1LTq0FBvUUB4hSfgem3Q+9EJ8JsPWdpdmw1WPw8hqQ+mX4+0fE&#xA;PZdP/PH8v7m3ElxdS2MveCaCR2r7GFZV/HMgZovE5vZfWRlUYiY7wR+mk58o/mH5f813V7b6UZa2&#xA;QRmaVQnqK9RyQVLUBG9QOuSjkEuTh9odj5tJGMsleru6e9k2TdU85/Pq8urfyKI4SQl3eRQ3FP8A&#xA;fYV5N/8AZxrlOY+l6X2Uxxlq7P8ADAke/YfcS8c8qeXYPMPmjSfL8twYLKSP1XkSgZiYjNJxrtz2&#xA;9OvgvtTKIxsgPa6/WHT6eeYC5A19vCPh1+LMPzC/KQ+WLI675dmlmtIBxvrWajssbfCzVAXlGa0d&#xA;SPfp0nPFW4dL2R7QfmpeDnAEj9JHf+g9xQP5R+bG0LzRBppdv0LrpURxsa+lOxKIR7819MnbkKHw&#xA;wYpUa6FyPaHs/wAfTmf+VxfaOZ+z1eXJkevfkvrV/wCa3jttQeLyzcfvZDJI0jxb7wIjGrb7qTsB&#xA;13G85YST5Os0ntLix6e5RvONthV/0ifv/a9P8t+V9F8uacthpVuIYtjJId5JG/mkfqx/V22y6MQO&#xA;Tyut12XUz48hs/YPc8P/ADeJb8yroLQkac9R4f6LIT+GY2X6nvPZ7/EY/wDDB/ug9B/IeNU8hKwr&#xA;WS7mZvn8K/8AGuXYfpec9q5XrPdEPQZpoYIXmnkWKGNS0kjkKqqNyWJ2AGWvOxiZGgLJSvTdW8te&#xA;a9LnNpJFqWnl2t50ZeSll6hlcfIjb3yIIkHLzafPpMg4gYT5j8BhWsfkF5RvJWlsZrjTixr6SMJY&#xA;h8g45f8ADZWcAd5p/azUwFTEZ/Yfs2+xAWf/ADjroaODeatczJX7MSRxH729XAMA73Iye2OUj0wi&#xA;PeSf1PQvLXk7y75btzDpFmsBcUlmNXlf/Wdqt9HTLYwA5POa3tHPqTeSV+XQfBOck4LsVdirsVdi&#xA;rsVdirsVdirsVdirsVdirsVdirzHzj+SGl6nctqOgTjSb9iXaEA/V2fxUL8UR/1aj2ymeEHk9V2d&#xA;7T5MUeDMPEh3/wAX7fj82CXH5QfmXHLxW1srnia+sv1Y8j7mRVdv9kMq8KTv4e0WhI+qcfL1foNM&#xA;1/LP8tfN3l/XRqup3ltFAYnhexgFeQeh/ZWONDyRTUVrTLMeMg2XR9t9tabUYvDxxkTYPEfwSevc&#xA;yXzF+avk/Qr6TT7meWfUYiFezt4ndwzAFRVuCVNf5snLIA6vR9g6nUQE4gCB6k/g/Yra5ZWPnvyL&#xA;PFatRL6MvaSNT4ZonPGpUsKc0oadsJHFFhpcs9BqwZfwHf3H9hfNsMmp6dcxvGWtdY0SU0j6OBHI&#xA;XO3cxuW5f5J8Acw9x8H02Qx5IkH1Y8o+8fpHLz8yH015R8yaf5x8rx3vBSs6Nb39qdwknGkkfyIa&#xA;o9jmZGXEHy7tDRT0WoMb5bxPl0P46vNLX8g9YN9GJNUitLG0ctBJErSTM3LlzKnginYL1OwG2UjA&#xA;XqMntZi4DUDKchvew93U/wBr2zMl4V2KvnT81iR+Z+p8aV+pMDXwNg1fwzEy/U+ldg/4hD+v/v2c&#xA;fll5k0Pyz+VttqGq3AhjkmuCkfWSRxIV4Rp1Y7fR3oMsxyAju6HtvRZdV2gYYxZqPuG3V5554/MT&#xA;WPNbVuHbTvL6mtvYoayTFT9pv5zUdT8K9qt1qnkMvc9J2X2Pi0n0+vN1l0H6vvPu5Tb8j/LWu2s0&#xA;usPBJp+lXUXFYJHr9YoapJ6bLUca/bqK9hQ5ZhiebovajW4ZgYgRPJE86+nvF/o+17BmQ8Y7FXYq&#xA;7FXYq7FXYq7FXYq7FXYq7FXYq7FXYq7FXYq7FXYq7FXYq8B/ObR207z9BqtAkGqwjhO2ypcRp6PK&#xA;vb0/3b5i5RUrfQ/ZvUeJozj64zy74k39u4ZJ+QnmeN9NufLF23p3tlI8ttE+xMTmsigHuklSf9b5&#xA;5PBLanWe1ehImNRHeMhR9/T5j7kp/Pny9Bp2pWHme0CpLdP6N3GRs7otUYjvyQFW+jI5o0bcz2U1&#xA;hyQlglyjuPL8HcIf8itU+pecdV0WNy1ldRu8QNft270Q+1Y2av0YMJo02e1ODj00Mp+qJH+yH63v&#xA;GZT5+7FXYq+bfzRWQ/mhrzR7ssCALStedjHHQf8AB5h5PqL6d2ER+QxX/O/35P6GKWtndyz29isc&#xA;moah/d2mnrV1jLEsQwHepJKDv9roVyADtsmSIBnYhDrLlf47/l0L2vyF+TcNlJHrHmjje6ns0Vma&#xA;NDDQfDy7OyjYD7I7VzIhi6l4ftb2jMwcWn9OPv6n9X3l6ll7ybsVdirsVdirsVdirsVdirsVdirs&#xA;VdirsVdirsVdirsVdirsVdirsVY7598nWvmzy/Lp0jCK5Q+rZXBFfTlUbVp+ywNGyE4cQdl2V2jL&#xA;SZhMbx5SHeHzde2mq6NrAiu3fR9fsSKTEsokoKK6vHWjEbcvssNyQa1xCCD5vpuLJjzYrjWTDLp3&#xA;eVH7uY6DuU8wa95g1ySGTzLqq3KWwIhiieFiQacggtwYwxpuz/j0xlInmx0mkw4ARghw8XO7/wB9&#xA;v8A9I/InyzeS6hfebbyL0opw8NktCAzSOGlda/srTiD8/DLsMerzPtVrYiEdNE2RRl8BsP0/J7Pm&#xA;Q8Q7FXYq8m/Mf8qNZ1bzPHq/l+YRNqI9HUy78BHROPqD9oqyLxKr39jtRkxEmw9h2N2/iw4DizC+&#xA;DeO3Py999WY+R/y80LylacbVfX1CQUuL+QD1G8VX+RP8kfTXLIYxF0vanbGXWS9W0Oken7SyjJup&#xA;dirsVdirsVdirsVdirsVdirsVdirsVdirsVdirsVdirsVdirsVdirsVdiqVeYPKvl/zDbiDWLKO6&#xA;Vf7tzVZEr/JIpDr9ByMog83M0mvzaeV4pGP3fLkxaz/JDyBbXQna2muADVYZpmMYp7LxJ+k5AYYu&#xA;1ye0+slGrA8wN2dwwwwRJDCixQxqEjjQBVVVFAFA2AGWuglIyNk2SvxYv//Z</xmpGImg:image>
               </rdf:li>
            </rdf:Alt>
         </xmp:Thumbnails>
      </rdf:Description>
      <rdf:Description rdf:about=""
            xmlns:xmpMM="http://ns.adobe.com/xap/1.0/mm/"
            xmlns:stRef="http://ns.adobe.com/xap/1.0/sType/ResourceRef#"
            xmlns:stEvt="http://ns.adobe.com/xap/1.0/sType/ResourceEvent#">
         <xmpMM:InstanceID>xmp.iid:0480117407206811822ABB576B6B8BD0</xmpMM:InstanceID>
         <xmpMM:DocumentID>xmp.did:0480117407206811822ABB576B6B8BD0</xmpMM:DocumentID>
         <xmpMM:OriginalDocumentID>uuid:5D20892493BFDB11914A8590D31508C8</xmpMM:OriginalDocumentID>
         <xmpMM:RenditionClass>proof:pdf</xmpMM:RenditionClass>
         <xmpMM:DerivedFrom rdf:parseType="Resource">
            <stRef:instanceID>xmp.iid:0180117407206811822ABB576B6B8BD0</stRef:instanceID>
            <stRef:documentID>xmp.did:0180117407206811822ABB576B6B8BD0</stRef:documentID>
            <stRef:originalDocumentID>uuid:5D20892493BFDB11914A8590D31508C8</stRef:originalDocumentID>
            <stRef:renditionClass>proof:pdf</stRef:renditionClass>
         </xmpMM:DerivedFrom>
         <xmpMM:History>
            <rdf:Seq>
               <rdf:li rdf:parseType="Resource">
                  <stEvt:action>saved</stEvt:action>
                  <stEvt:instanceID>xmp.iid:0180117407206811822ABB576B6B8BD0</stEvt:instanceID>
                  <stEvt:when>2013-11-11T15:21:44-06:00</stEvt:when>
                  <stEvt:softwareAgent>Adobe Illustrator CS6 (Macintosh)</stEvt:softwareAgent>
                  <stEvt:changed>/</stEvt:changed>
               </rdf:li>
               <rdf:li rdf:parseType="Resource">
                  <stEvt:action>saved</stEvt:action>
                  <stEvt:instanceID>xmp.iid:0480117407206811822ABB576B6B8BD0</stEvt:instanceID>
                  <stEvt:when>2013-11-11T15:28:01-06:00</stEvt:when>
                  <stEvt:softwareAgent>Adobe Illustrator CS6 (Macintosh)</stEvt:softwareAgent>
                  <stEvt:changed>/</stEvt:changed>
               </rdf:li>
            </rdf:Seq>
         </xmpMM:History>
      </rdf:Description>
      <rdf:Description rdf:about=""
            xmlns:illustrator="http://ns.adobe.com/illustrator/1.0/">
         <illustrator:StartupProfile>Print</illustrator:StartupProfile>
      </rdf:Description>
      <rdf:Description rdf:about=""
            xmlns:xmpTPg="http://ns.adobe.com/xap/1.0/t/pg/"
            xmlns:stDim="http://ns.adobe.com/xap/1.0/sType/Dimensions#"
            xmlns:xmpG="http://ns.adobe.com/xap/1.0/g/">
         <xmpTPg:HasVisibleOverprint>False</xmpTPg:HasVisibleOverprint>
         <xmpTPg:HasVisibleTransparency>False</xmpTPg:HasVisibleTransparency>
         <xmpTPg:NPages>1</xmpTPg:NPages>
         <xmpTPg:MaxPageSize rdf:parseType="Resource">
            <stDim:w>1000.000000</stDim:w>
            <stDim:h>1000.000000</stDim:h>
            <stDim:unit>Points</stDim:unit>
         </xmpTPg:MaxPageSize>
         <xmpTPg:PlateNames>
            <rdf:Seq>
               <rdf:li>Cyan</rdf:li>
               <rdf:li>Magenta</rdf:li>
               <rdf:li>Yellow</rdf:li>
               <rdf:li>Black</rdf:li>
            </rdf:Seq>
         </xmpTPg:PlateNames>
         <xmpTPg:SwatchGroups>
            <rdf:Seq>
               <rdf:li rdf:parseType="Resource">
                  <xmpG:groupName>Default Swatch Group</xmpG:groupName>
                  <xmpG:groupType>0</xmpG:groupType>
               </rdf:li>
            </rdf:Seq>
         </xmpTPg:SwatchGroups>
      </rdf:Description>
      <rdf:Description rdf:about=""
            xmlns:pdf="http://ns.adobe.com/pdf/1.3/">
         <pdf:Producer>Adobe PDF library 10.01</pdf:Producer>
      </rdf:Description>
   </rdf:RDF>
</x:xmpmeta>
                                                                                                    
                                                                                                    
                                                                                                    
                                                                                                    
                                                                                                    
                                                                                                    
                                                                                                    
                                                                                                    
                                                                                                    
                                                                                                    
                                                                                                    
                                                                                                    
                                                                                                    
                                                                                                    
                                                                                                    
                                                                                                    
                                                                                                    
                                                                                                    
                                                                                                    
                                                                                                    
                           
<?xpacket end="w"?>
	</metadata>
<g>
	<g>
		<g>
			<polygon fill="#ED1941" points="101.765,503.611 105.402,383.634 92.024,365.883 0.38,434.941 17.923,437.408 92.105,381.508 
				87.157,530.43 159.695,475.77 178.408,478.471 162.734,457.67 			"/>
		</g>
		<g>
			<polygon fill="#ED1941" points="84.232,536.055 89.186,387.128 18.663,440.269 0,437.647 15.556,458.292 73.735,414.449 
				70.184,534.883 83.435,552.468 178.04,481.179 160.432,478.639 			"/>
		</g>
	</g>
	<g>
		<g>
			<g>
				<path fill="#ED1941" d="M264.589,336.36c-10.875-10.621-24.467-16.008-40.387-16.008c-15.925,0-29.512,5.387-40.388,16.008
					c-10.871,10.614-16.383,24.008-16.383,39.811c0,15.806,5.512,29.2,16.383,39.812c10.875,10.621,24.462,16.006,40.388,16.006
					c15.92,0,29.512-5.385,40.387-16.006c10.873-10.614,16.382-24.009,16.382-39.812C280.971,360.37,275.462,346.978,264.589,336.36
					z M254.056,408.343c-8.065,8.812-17.987,13.214-29.753,13.214c-11.767,0-21.685-4.401-29.753-13.214
					c-8.064-8.803-12.102-19.493-12.102-32.07c0-12.572,4.038-23.299,12.102-32.172c8.069-8.877,17.986-13.313,29.753-13.313
					c11.766,0,21.688,4.436,29.753,13.313c8.071,8.874,12.102,19.6,12.102,32.172C266.157,388.85,262.126,399.54,254.056,408.343z"
					/>
			</g>
		</g>
		<g>
			<g>
				<path fill="#ED1941" d="M276.85,324.23c-14.253-13.918-31.806-20.878-52.648-20.878c-20.844,0-38.393,6.96-52.645,20.878
					c-14.259,13.921-21.384,31.233-21.384,51.94c0,20.711,7.125,38.021,21.384,51.942c14.252,13.915,31.8,20.874,52.645,20.874
					c20.842,0,38.395-6.959,52.648-20.874c14.251-13.921,21.379-31.231,21.379-51.942
					C298.229,355.463,291.101,338.151,276.85,324.23z M266.464,417.899c-11.399,11.126-25.614,16.769-42.262,16.769
					c-16.646,0-30.865-5.643-42.26-16.769c-11.405-11.135-17.185-25.174-17.185-41.729c0-16.55,5.779-30.592,17.185-41.728
					c11.395-11.127,25.612-16.771,42.26-16.771c16.648,0,30.866,5.644,42.262,16.771c11.406,11.141,17.188,25.178,17.188,41.728
					C283.652,392.722,277.87,406.762,266.464,417.899z"/>
			</g>
		</g>
	</g>
	<g>
		<g>
			<g>
				<path fill="#ED1941" d="M436.582,318.154c-3.063-17.371-11.008-29.922-23.618-37.306c-12.68-7.425-30.779-9.134-53.79-5.076
					l-24.39,4.3l19.027,107.896l27.936-4.924c20.663-3.645,35.919-11.102,45.343-22.165
					C436.448,349.891,439.645,335.516,436.582,318.154z M416.422,353.767c-6.357,8.497-16.621,13.995-30.788,16.491l-19.667,3.469
					L351.08,289.3l17.283-3.048c15.757-2.778,28.095-1.164,37.008,4.846c8.907,6.009,14.567,15.83,16.972,29.471
					C424.748,334.207,422.772,345.275,416.422,353.767z"/>
			</g>
		</g>
		<g>
			<path fill="#ED1941" d="M424.612,267.221c-15.381-9.781-35.455-12.49-60.216-8.125l-47.054,8.297l16.501,9.948l-0.119,0.197
				l24.989-4.407c23.651-4.169,42.364-2.353,55.61,5.401c13.315,7.8,21.697,20.972,24.904,39.156
				c3.206,18.186-0.191,33.303-10.092,44.929c-9.838,11.55-25.628,19.31-46.918,23.064l-30.576,5.392l-19.706-111.75l-16.293-9.823
				l24.175,137.102l47.475-8.372c26.485-4.669,45.081-14.435,55.77-29.294c10.695-14.855,14.139-33.074,10.331-54.663
				C449.586,292.686,439.989,277.001,424.612,267.221z"/>
		</g>
	</g>
	<g>
		<polygon fill="#ED1941" points="505.971,263.824 491.576,249.428 491.576,388.529 521.151,388.529 505.971,373.351 		"/>
	</g>
	<g>
		<polygon fill="#ED1941" points="508.652,262.712 508.652,372.242 523.043,386.634 523.043,247.532 493.472,247.532 		"/>
	</g>
	<g>
		<line fill="#ED1941" x1="572.979" y1="388.265" x2="572.714" y2="388.529"/>
	</g>
	<g>
		<g>
			<polygon fill="#ED1941" points="650.757,260.408 637.244,257.781 550.54,384.563 581.404,390.563 571.644,376.096 			"/>
		</g>
		<g>
			<polygon fill="#ED1941" points="655.134,358.427 652.188,345.144 619.046,338.702 658.068,281.238 683.353,396.561 
				699.538,411.352 667.137,263.594 652.189,260.688 653.298,261.444 574.886,376.105 583.188,388.414 600.983,362.802 
				609.956,349.646 			"/>
		</g>
		<g>
			<polygon fill="#ED1941" points="656.78,287.86 645.689,304.035 658.616,361.833 611.177,352.611 603.525,363.836 
				660.105,374.834 667.166,407.233 697.509,413.131 680.921,397.968 			"/>
		</g>
	</g>
	<g>
		<path fill="#ED1941" d="M778.989,438.258c-15.817-7.375-26.663-18.64-32.235-33.476c-5.575-14.847-4.777-30.138,2.365-45.452
			c7.141-15.315,18.485-25.808,33.726-31.181c15.23-5.375,30.606-4.528,45.705,2.512c8.84,4.123,16.207,9.75,21.892,16.728
			c2.674,3.282,5.03,6.924,6.996,10.826l0.281,0.553l-7.902,18.733l25.323-11.061c-6.688-22.555-20.517-38.726-41.476-48.5
			c-18.773-8.752-37.603-9.812-56.49-3.192c-18.895,6.623-32.758,19.411-41.594,38.359c-8.839,18.952-9.787,37.611-2.846,55.984
			c6.935,18.367,20.248,32.145,39.93,41.321c19.683,9.18,40.586,8.984,62.704-0.585l-9.502-27.354
			c-14.069,6.944-28.111,7.146-42.128,0.61c-10.235-4.774-17.274-12.432-21.11-22.975c-3.841-10.546-2.984-21.759,2.557-33.642
			c5.541-11.885,13.754-19.552,24.637-23.006c10.885-3.457,21.688-2.686,32.417,2.315c12.785,5.961,21.183,16.103,25.228,30.403
			l7.298-17.307c-1.825-3.523-3.975-6.815-6.401-9.791c-5.426-6.662-12.473-12.04-20.944-15.992
			c-14.442-6.733-29.138-7.546-43.683-2.415c-14.532,5.13-25.364,15.152-32.189,29.788c-6.824,14.638-7.593,29.231-2.284,43.378
			c5.315,14.158,15.697,24.92,30.857,31.99c15.129,7.052,31.453,6.865,48.516-0.557l1.073,2.458
			C811.907,445.475,794.846,445.653,778.989,438.258z"/>
	</g>
	<g>
		<g>
			<path fill="#ED1941" d="M957.979,489.842c-1.538-10.695-6.434-22.027-14.688-34.004c-8.255-11.968-13.045-20.253-14.366-24.854
				c-1.326-4.599-0.688-8.649,1.919-12.158c2.605-3.51,5.865-5.292,9.781-5.352c3.925-0.059,7.914,1.711,11.963,5.292
				c9.637,8.525,16.29,20.426,19.988,35.681l7.636-16.95c-8.69-23.001-26.197-43.789-43.143-39.372
				c-11.764,3.067-19.05,9.201-21.647,18.233c-4.065,14.12,4.199,32.625,13.599,43.843c12.213,14.583,16.669,34.228,10.823,47.775
				c-4.607,10.67-14.815,16.209-28.743,15.593c-9.061-0.398-16.497-4.097-22.565-9.464c-11.399-10.086-17.956-26.062-21.354-37.087
				l-0.186-0.6l10.811-22.149l-27.396,6.435c3.33,26.38,13.626,47.206,30.889,62.476c11.959,10.578,24.104,15.748,36.428,15.499
				c12.327-0.238,22.498-5.768,30.524-16.578C956.271,511.289,959.516,500.536,957.979,489.842z"/>
		</g>
		<g>
			<path fill="#ED1941" d="M895.464,430.116c1.907,10.539,7.962,23.089,18.18,37.65c6.382,9.271,10.139,16.16,11.266,20.685
				c1.12,4.517,0.338,8.589-2.351,12.209c-2.687,3.625-6.096,5.375-10.222,5.247c-4.13-0.124-8.431-2.17-12.896-6.12
				c-9.623-8.514-16.132-23.062-19.546-43.599l-9.98,20.46c5.088,16.252,17.113,42.92,41.33,43.989
				c12.775,0.564,22.067-4.37,26.177-13.891c5.392-12.491,1.118-30.814-10.388-44.551c-9.896-11.811-18.552-31.458-14.168-46.688
				c2.909-10.101,10.854-16.909,23.615-20.239c9.023-2.35,18.576,1.3,27.615,10.557c7.466,7.644,14.325,18.993,18.829,31.144
				l0.228,0.612l-8.326,18.467l25.174-8.203c-1.654-9.844-5.094-19.369-10.322-28.564c-5.233-9.204-11.488-17.021-18.763-23.46
				c-11.13-9.842-22.717-14.943-34.762-15.31c-12.045-0.368-22.313,5.172-30.807,16.619
				C896.855,408.574,893.56,419.567,895.464,430.116z"/>
		</g>
	</g>
</g>
</svg>
