<?xml version="1.0" encoding="utf-8"?>
<!-- Generator: Adobe Illustrator 16.0.4, SVG Export Plug-In . SVG Version: 6.00 Build 0)  -->
<!DOCTYPE svg PUBLIC "-//W3C//DTD SVG 1.1//EN" "http://www.w3.org/Graphics/SVG/1.1/DTD/svg11.dtd">
<svg version="1.1" id="Layer_1" xmlns="http://www.w3.org/2000/svg" xmlns:xlink="http://www.w3.org/1999/xlink" x="0px" y="0px"
	 width="1000px" height="1000px" viewBox="0 0 1000 1000" enable-background="new 0 0 1000 1000" xml:space="preserve">
<metadata><?xpacket begin="﻿" id="W5M0MpCehiHzreSzNTczkc9d"?>
<x:xmpmeta xmlns:x="adobe:ns:meta/" x:xmptk="Adobe XMP Core 5.3-c011 66.145661, 2012/02/06-14:56:27        ">
   <rdf:RDF xmlns:rdf="http://www.w3.org/1999/02/22-rdf-syntax-ns#">
      <rdf:Description rdf:about=""
            xmlns:dc="http://purl.org/dc/elements/1.1/">
         <dc:format>image/svg+xml</dc:format>
         <dc:title>
            <rdf:Alt>
               <rdf:li xml:lang="x-default">Print</rdf:li>
            </rdf:Alt>
         </dc:title>
      </rdf:Description>
      <rdf:Description rdf:about=""
            xmlns:xmp="http://ns.adobe.com/xap/1.0/"
            xmlns:xmpGImg="http://ns.adobe.com/xap/1.0/g/img/">
         <xmp:MetadataDate>2013-11-22T11:02:33-06:00</xmp:MetadataDate>
         <xmp:ModifyDate>2013-11-22T11:02:33-06:00</xmp:ModifyDate>
         <xmp:CreateDate>2013-11-22T11:02:32-06:00</xmp:CreateDate>
         <xmp:CreatorTool>Adobe Illustrator CS6 (Macintosh)</xmp:CreatorTool>
         <xmp:Thumbnails>
            <rdf:Alt>
               <rdf:li rdf:parseType="Resource">
                  <xmpGImg:width>176</xmpGImg:width>
                  <xmpGImg:height>256</xmpGImg:height>
                  <xmpGImg:format>JPEG</xmpGImg:format>
                  <xmpGImg:image>/9j/4AAQSkZJRgABAgEASABIAAD/7QAsUGhvdG9zaG9wIDMuMAA4QklNA+0AAAAAABAASAAAAAEA&#xA;AQBIAAAAAQAB/+4ADkFkb2JlAGTAAAAAAf/bAIQABgQEBAUEBgUFBgkGBQYJCwgGBggLDAoKCwoK&#xA;DBAMDAwMDAwQDA4PEA8ODBMTFBQTExwbGxscHx8fHx8fHx8fHwEHBwcNDA0YEBAYGhURFRofHx8f&#xA;Hx8fHx8fHx8fHx8fHx8fHx8fHx8fHx8fHx8fHx8fHx8fHx8fHx8fHx8fHx8f/8AAEQgBAACwAwER&#xA;AAIRAQMRAf/EAaIAAAAHAQEBAQEAAAAAAAAAAAQFAwIGAQAHCAkKCwEAAgIDAQEBAQEAAAAAAAAA&#xA;AQACAwQFBgcICQoLEAACAQMDAgQCBgcDBAIGAnMBAgMRBAAFIRIxQVEGE2EicYEUMpGhBxWxQiPB&#xA;UtHhMxZi8CRygvElQzRTkqKyY3PCNUQnk6OzNhdUZHTD0uIIJoMJChgZhJRFRqS0VtNVKBry4/PE&#xA;1OT0ZXWFlaW1xdXl9WZ2hpamtsbW5vY3R1dnd4eXp7fH1+f3OEhYaHiImKi4yNjo+Ck5SVlpeYmZ&#xA;qbnJ2en5KjpKWmp6ipqqusra6voRAAICAQIDBQUEBQYECAMDbQEAAhEDBCESMUEFURNhIgZxgZEy&#xA;obHwFMHR4SNCFVJicvEzJDRDghaSUyWiY7LCB3PSNeJEgxdUkwgJChgZJjZFGidkdFU38qOzwygp&#xA;0+PzhJSktMTU5PRldYWVpbXF1eX1RlZmdoaWprbG1ub2R1dnd4eXp7fH1+f3OEhYaHiImKi4yNjo&#xA;+DlJWWl5iZmpucnZ6fkqOkpaanqKmqq6ytrq+v/aAAwDAQACEQMRAD8A7x5O8neUZvKOhyy6Hp8k&#xA;smn2rySPawszM0KkkkrUknFU3/wT5M/6sOnf9IkH/NGKu/wT5M/6sOnf9IkH/NGKu/wT5M/6sOnf&#xA;9IkH/NGKu/wT5M/6sOnf9IkH/NGKu/wT5M/6sOnf9IkH/NGKu/wT5M/6sOnf9IkH/NGKu/wT5M/6&#xA;sOnf9IkH/NGKu/wT5M/6sOnf9IkH/NGKu/wT5M/6sOnf9IkH/NGKu/wT5M/6sOnf9IkH/NGKu/wT&#xA;5M/6sOnf9IkH/NGKu/wT5M/6sOnf9IkH/NGKu/wT5M/6sOnf9IkH/NGKu/wT5M/6sOnf9IkH/NGK&#xA;u/wT5M/6sOnf9IkH/NGKu/wT5M/6sOnf9IkH/NGKu/wT5M/6sOnf9IkH/NGKu/wT5M/6sOnf9IkH&#xA;/NGKu/wT5M/6sOnf9IkH/NGKu/wT5M/6sOnf9IkH/NGKpRdaDoemec/Lj6bp1rZPIL1ZGt4Y4iwE&#xA;INCUC1xVN/JP/KGaD/2zrT/kwmKsP/ND80NX8o6vaWVlaW9xHcW/rM03OoPNloOLLt8OU5MhiXp+&#xA;w+w8esxynOUgRKtq7mGf9DD+Z/8Aq22X3S/815X45d3/AKEMH8+f2fqd/wBDD+Z/+rbZfdL/AM14&#xA;+OV/0IYP58/s/U7/AKGH8z/9W2y+6X/mvHxyv+hDB/Pn9n6nf9DD+Z/+rbZfdL/zXj45X/Qhg/nz&#xA;+z9Tv+hh/M//AFbbL7pf+a8fHK/6EMH8+f2fqd/0MP5n/wCrbZfdL/zXj45X/Qhg/nz+z9Tv+hh/&#xA;M/8A1bbL7pf+a8fHK/6EMH8+f2fqd/0MP5n/AOrbZfdL/wA14+OV/wBCGD+fP7P1O/6GH8z/APVt&#xA;svul/wCa8fHK/wChDB/Pn9n6nf8AQw/mf/q22X3S/wDNePjlf9CGD+fP7P1O/wChh/M//Vtsvul/&#xA;5rx8cr/oQwfz5/Z+p3/Qw/mf/q22X3S/814+OV/0IYP58/s/U7/oYfzP/wBW2y+6X/mvHxyv+hDB&#xA;/Pn9n6nf9DD+Z/8Aq22X3S/814+OV/0IYP58/s/U7/oYfzP/ANW2y+6X/mvHxyv+hDB/Pn9n6nf9&#xA;DD+Z/wDq22X3S/8ANePjlf8AQhg/nz+z9Tv+hh/M/wD1bbL7pf8AmvHxyv8AoQwfz5/Z+p3/AEMP&#xA;5n/6ttl90v8AzXj45X/Qhg/nz+z9T17yH5iuvMflSx1m6jSGe69XnHFXgPTmeMU5EnomXwlYt47t&#xA;XRx02oliiSRGufmAf0rNb/5TDy1/0ff8mBk3XIjyT/yhmg/9s60/5MJirxz/AJyH/wCUn03/AJgh&#xA;/wAnXzFz830L2Q/uJ/1/0B5VlD1qN0TR7zWdWtdLsgDc3cgjj5Giiu5Zjvso3OGIs00anURw45ZJ&#xA;fTEJt5i0Hytp0Eiafr51HULeQRTW/wBVeKNjuHaOUswIQim437ZKUQOrh6PV6jIRx4uCBFg8QJ+I&#xA;81W68h3dv5Lh8ym5VpHKSS6dxpJHayu0UVwzV+y7pQfD9OJh6bYQ7VjLVHBX+d0MgATH4Ao/Svy9&#xA;0q9tNF9bXGttS11HaytDaNJHyWRowrSrJtUr14YRjBrfm0ajtfJCWSsfFDF9R4qPK+VfpQGl+UtK&#xA;fSJ9S1rVm0tYb06fwS1NzWRU5kkrIhA69AcAgKslyM/aGQZBDFDjuHF9XDtddxRdj+XLS67e6dda&#xA;h6dra6d+lYL62ga4+sW5KcDHHyib4hJ94phGPemnL2zWKM4x9UsnAYk8PDLe7NHuWaX5EsNV8zjR&#xA;bHVZFj+qvcvdXdo1txdKng0bSMeNADzr9G2IhZq05+1Z4sHizgPqAqMuLn1uufkgL7yZfafo+o3t&#xA;8xgu9Nvo7CWzKVqZEZ+YevT4dttwa1yJhQcjF2lDJlhCG8ZwMr9xqqQ1l5d+ueWdQ1mC45TabNEl&#xA;1ZcNxBNVVmD8t/3g4lePvXER2ttyazgzxxEbTBo+Y6V7t+abH8vph5m0/QGvAtzPax3eqO0dFslZ&#xA;DK6v8XxFI6H9mpNMPh704n8rjwJ5uH0iRjHf696FbbWfesh8hTN55bytLdhARK8N8qc1eJIGuI5F&#xA;TkNpFUftbV70x4PVSZdqgaT8wI93pvkeIRI5dD5JPoGifpaW9j9b0Pqllc3tePPl9WjMnDqtOVKV&#xA;7eGRjG3N1ep8ERNXxTjH/TGrRXlHy1Br11exz3b2cNjaPeO8UBuXYJJHHxWMPGf92V64YRtp7Q1p&#xA;08YkREjKXDvLh6E86Pcjo/Jmn3mpXOm6XqU099HaG5tILiza2e4kQkvAqtI5DemOanfl02w8G9Bo&#xA;PaU4QE8kAI8VEifFwjpLkOux7uaWeZPL36CltbSe456lJAs19ahafVmk+JImbkeT8KM2wpXvglGn&#xA;K0Ws8cSkB6LqJ/nVzPuvkk+Rc12Kvp78mv8AyW2j/wDRz/1FS5m4fpD5Z7Sf49k/zf8AcxTLW/8A&#xA;lMPLX/R9/wAmBljo0R5J/wCUM0H/ALZ1p/yYTFXjn/OQ/wDyk+m/8wQ/5OvmLn5voXsh/cT/AK/6&#xA;A8qyh61H6BrV1omtWerWoBns5BIqt9lh0ZT7MpIwxNG3H1emjnxSxy5SDI77zR5NOn39tpmjXFpJ&#xA;q7Q/XWedZEhSOZZmW3HAHcrT4jkzKPQOtxaHU8cZZMkZeHfD6auwR6t0fJ+ayXGoXUNxpNuNAubd&#xA;rA28UUa3S2gQrEgnpWqGjDtXph8Xy2caPYJjAETl40ZcVknh4r39Pnya0P8ANa50mz0fT4opDp9n&#xA;bzW2oxKyo8gmdm5xSKOcbIG2364jLVJ1XYMc0skyRxykDHyoDYjkQUr0rzD5Vj0WfSdVsry8t/r7&#xA;X1t6UscTMPT9NVlJVz03PHIiQqi5efR6g5RkxyhE8HCbBPW9v2php/5lQJ5jvtSuLWe0s59M/RNl&#xA;BYShJraFWj9MpKw+0ojO9OpyQyb242XsUnBHGJCUhk45GQsSO92PihF846Vb65PqMP6SvBcafcWU&#xA;j6lcJcT85kKKQ4VfgUEbYOMXbcezsksQgfDjU4y9ETEbG+Xet1Tz/LqnkmLQb6D1NQhniYajUcpI&#xA;YVZY1l7sy86BvDE5LjScHZIxao5oGoEH09xNXXkaQXkbzVH5c1lrq5t/rmn3EL297aVH7xG3HXaq&#xA;uoORhKi39qaA6nFwxPDMEGJ7vwEdZfmFJbXWv6qbSO41jW24B51WWCO3duUsRjb7XIBV32oMkMnM&#xA;9S4+XsgSjix8RGPF3bEy6G+nUo22/MqzfXNC1q/0/wD0zS4bi0uRahIo5IHieOBUSlEMfqEfLD4m&#xA;4LRPsWQxZMUJ+mZjIcW5BBBlZ63SB07zD5M0zV2msrC+/R1zZXFneQyzRtKfrCFOSMFAFFPcYBKI&#xA;LkZtHqsuOpyhxxnGQoGvTvvuv0PzV5Z0TWr2406DUbawvLBrOsdxGt3HI0qSGRJQoA2jp0xjIA7I&#xA;1Wgz58URM45TjPi+k8JFEURfmgL3zJZ/4q0/WrSXUbhbR4ZZX1G4We5ZopORCyKqfDxoAD74DLe2&#xA;/Hopfl5YpDGOIEeiNR3HclGtagdS1i+1A8h9bnkmAc8mAkcsAT7A5Emy5mmw+FijD+bED5IPA3ux&#xA;V9Pfk1/5LbR/+jn/AKipczcP0h8s9pP8eyf5v+5imWt/8ph5a/6Pv+TAyx0aI8k/8oZoP/bOtP8A&#xA;kwmKvHP+ch/+Un03/mCH/J18xc/N9C9kP7if9f8AQHlWUPWuxV2Kpx5O06x1LzVpVhfmlnc3Mccw&#xA;rxqpP2a9uXTJQFkOF2jmni085w+qMTTI/NWp6rMdR0y58s2mn6fazrGLmKzMclqgk4ofXWleY2q2&#xA;zdsnInlTrdBgxx4Mkc0pzkORnYlt/N8vLkyw2SJ54Tycvlm1fywUWP6z9X/fNCYuRu/rnXly/ar/&#xA;AJPXJ16qrZ0/ik6T8z40vH7uLa7+jg/HfyYPqOk2i+QbWa0gWeYatdQ/XEjBkeJI04VYCvHuBXKy&#xA;PT8XfYdRL85ISNDwomr2Bs2hdY05B5O8t3MFsBNL9e+szInxNwmAXmwFTxHSuAjYNumzH8zmiTsO&#xA;Chf9HoyYnTrPyZo5SLTo7m5sZpJPX0z61PK/rSqCJwjcTRQBU7ZPbhH6nV+ueqyWchjGY5ZOED0x&#xA;/htW0eyex8v+Wl0bTtOuJNc9Y3+r6lB9YjWVHIFuTR/TWgp9n4j0xAoCurDUZRkzZvFnkHhVwwhL&#xA;hNEfV0v9CQ6logs9B8yQ3EFu2pWmr20HqWyHinJZy8cJZQ4SoG3sMiY7H3uwwarjzYTEy4JYpHf/&#xA;ADaJ6WynXPIFvD5HfTYrGBdY0m3jv5r9JITPPIebXduyKTLxhRhxqN+P3zlj9NdXU6XtYy1fGZHw&#xA;8kjERqVAbcEu65Hn72O6rrqSeQrK5Gk6XFc3tzdWk08dlAkgjijiKlGC1Vv3h+IZEy9PJ2WDSkau&#xA;UePIYxjGQBnKrJl9m3JNvOI0yy0aC2todNheXS7aRov0YGuGeSEFnF0qUVj1rXbDOgPh3OH2d4k8&#xA;plI5DWSX+U9Ox5cNvL8perdirsVdir6e/Jr/AMlto/8A0c/9RUuZuH6Q+We0n+PZP83/AHMUy1v/&#xA;AJTDy1/0ff8AJgZY6NEeSf8AlDNB/wC2daf8mExV45/zkP8A8pPpv/MEP+Tr5i5+b6F7If3E/wCv&#xA;+gPKsoetdirsVcCQQQaEbgjFU11HzZ5m1KySxv8AVLm6tEpSGWVmU8ehYE/FTtXCZEuHh0GDFLjh&#xA;CMZd4Df+LfM/6L/RX6Uuv0dx4fVfVbhw6cKV+z/k9MeM1S/yfg8TxOCPH31+N2tM81+ZdKtjbabq&#xA;dzZ25YuYoZGReRoCaA9dsRIjknPoMGWXFOEZHzDdp5t8z2lkbG11S5hs25crdJGVD6hJf4Qf2q74&#xA;iZRk7PwTlxyhEy767l1n5x81WVkljaatdQWcYKpBHKyoAxJICg964RMjqjJ2dp5y45QiZd9KWk+a&#xA;PMWjxSQ6XqNxZxS7yRwyMqk0pyoNq+/XAJEcmWo0OHMQckIyI7woJrGqoXK3ctZZlupCXJLTxklZ&#xA;Wr1YFjucbLadPjNekbDh+B6e5qLV9Ui1FtSju5V1B2dnug59RjICHJbqeQY1xs3ay0+Mw4DEcHd0&#xA;25KTXl09pHZtKxtYnaSOEk8FdwAzAeJCiuC2YxxEjKvUeqZt5z82NYmwbV7o2TRegbcytwMRXhw4&#xA;1px47UyXGe9xR2bpxPj4I8V3db33pNkXNdirsVdir6e/Jr/yW2j/APRz/wBRUuZuH6Q+We0n+PZP&#xA;83/cxTLW/wDlMPLX/R9/yYGWOjRHkn/lDNB/7Z1p/wAmExVKvOeh/lrqF/BL5rktUvEi4wC4vGtm&#xA;9LkTsoljqOVd6ZXOMTzdz2bqtdjgRpxLhveocW/yLH/8I/kF/v8A03/uKP8A9lGQ4Mf4Lsf5Q7Y7&#xA;sn/Ksf8AEu/wj+QX+/8ATf8AuKP/ANlGPBj/AAV/lDtjuyf8qx/xLv8ACP5Bf7/03/uKP/2UY8GP&#xA;8Ff5Q7Y7sn/Ksf8AEu/wj+QX+/8ATf8AuKP/ANlGPBj/AAV/lDtjuyf8qx/xLv8ACP5Bf7/03/uK&#xA;P/2UY8GP8Ff5Q7Y7sn/Ksf8AEu/wj+QX+/8ATf8AuKP/ANlGPBj/AAV/lDtjuyf8qx/xLv8ACP5B&#xA;f7/03/uKP/2UY8GP8Ff5Q7Y7sn/Ksf8AEu/wj+QX+/8ATf8AuKP/ANlGPBj/AAV/lDtjuyf8qx/x&#xA;Lv8ACP5Bf7/03/uKP/2UY8GP8Ff5Q7Y7sn/Ksf8AEu/wj+QX+/8ATf8AuKP/ANlGPBj/AAV/lDtj&#xA;uyf8qx/xLv8ACP5Bf7/03/uKP/2UY8GP8Ff5Q7Y7sn/Ksf8AEu/wj+QX+/8ATf8AuKP/ANlGPBj/&#xA;AAV/lDtjuyf8qx/xLv8ACP5Bf7/03/uKP/2UY8GP8Ff5Q7Y7sn/Ksf8AEu/wj+QX+/8ATf8AuKP/&#xA;ANlGPBj/AAV/lDtjuyf8qx/xLv8ACP5Bf7/03/uKP/2UY8GP8Ff5Q7Y7sn/Ksf8AEu/wj+QX+/8A&#xA;Tf8AuKP/ANlGPBj/AAV/lDtjuyf8qx/xLv8ACP5Bf7/03/uKP/2UY8GP8Ff5Q7Y7sn/Ksf8AEu/w&#xA;j+QX+/8ATf8AuKP/ANlGPBj/AAV/lDtjuyf8qx/xLPPLNnoFnoltbeX2jbSE5/VmhlM8e8jF6SFn&#xA;5fGW/a9stiBWzz+tyZp5TLNfibXYo8tttuiA1v8A5TDy1/0ff8mBknFRHkn/AJQzQf8AtnWn/JhM&#xA;VeU/nZZxXv5geXrOaohuYoYZCpoeMlyymh8aHMbMLkHu/ZnIYaPLIc4kn5RZR/yoLyN/vy9/5HJ/&#xA;1TyfgRdV/os1fdD5H9bv+VBeRv8Afl7/AMjk/wCqePgRX/RZq+6HyP63f8qC8jf78vf+Ryf9U8fA&#xA;iv8Aos1fdD5H9bv+VBeRv9+Xv/I5P+qePgRX/RZq+6HyP63f8qC8jf78vf8Akcn/AFTx8CK/6LNX&#xA;3Q+R/W7/AJUF5G/35e/8jk/6p4+BFf8ARZq+6HyP63f8qC8jf78vf+Ryf9U8fAiv+izV90Pkf1u/&#xA;5UF5G/35e/8AI5P+qePgRX/RZq+6HyP63f8AKgvI3+/L3/kcn/VPHwIr/os1fdD5H9bv+VBeRv8A&#xA;fl7/AMjk/wCqePgRX/RZq+6HyP63f8qC8jf78vf+Ryf9U8fAiv8Aos1fdD5H9bv+VBeRv9+Xv/I5&#xA;P+qePgRX/RZq+6HyP63f8qC8jf78vf8Akcn/AFTx8CK/6LNX3Q+R/W7/AJUF5G/35e/8jk/6p4+B&#xA;Ff8ARZq+6HyP63f8qC8jf78vf+Ryf9U8fAiv+izV90Pkf1u/5UF5G/35e/8AI5P+qePgRX/RZq+6&#xA;HyP63f8AKgvI3+/L3/kcn/VPHwIr/os1fdD5H9aQee/ye8p6F5T1HVbJ7o3VqiNEJJFZKtIqmoCD&#xA;s3jkZ4gBbsOyvaLUZ9RDHIR4Zdw8j5sz/Jr/AMlto/8A0c/9RUuWYfpDpfaT/Hsn+b/uYplrf/KY&#xA;eWv+j7/kwMsdGiPJP/KGaD/2zrT/AJMJiry/83v/ACZ3lb/o2/6izmNl+oPcez3+IZv87/cPasyX&#xA;h3Yq7FXYq7FXYq7FXYq7FXYq7FXYq7FXYq7FXYq7FWI/m1/5LvWf+Mcf/J5Mry/SXc+z/wDjuP3n&#xA;7io/k1/5LbR/+jn/AKipccP0hn7Sf49k/wA3/cxTLW/+Uw8tf9H3/JgZY6NEeSf+UM0H/tnWn/Jh&#xA;MVeX/m9/5M7yt/0bf9RZzGy/UHuPZ7/EM3+d/uHtWZLw7sVdirsVdirsVdirj08fbFXgn5y/n/Fp&#xA;mnz6DpllqOmeZorm3kb65CkSrFDKJiyssjh1f0wtRsQTvir0b8v/AM1tF89GRtF0/UUtYRSa9uIU&#xA;jtw+37sP6jcm36KPnTFWa4q7FXYq7FXYq7FXYqxH82v/ACXes/8AGOP/AJPJleX6S7n2f/x3H7z9&#xA;xUfya/8AJbaP/wBHP/UVLjh+kM/aT/Hsn+b/ALmKZa3/AMph5a/6Pv8AkwMsdGiPJP8Ayhmg/wDb&#xA;OtP+TCYq8v8Aze/8md5W/wCjb/qLOY2X6g9x7Pf4hm/zv9w9qzJeHdirsVdiryHzX+f9h5K85a3o&#xA;HmKzkngt44rnR57QKXkWWNC0EqsVClZOVHr9ntXqq9I8p6pqeq+XLDU9TtFsLu+iFw1krFvSSX4o&#xA;0ZmCkuEK8th8VcVTbFXYq8v/ADG/JlfzC82W15rV81roWnWZgtLe1p9YkuJWZpJGd1KqijgAtCTQ&#xA;9MVZJ+WHlXVPKXlOLy5f3CXaadNKljdoCpktnb1ULofsspkZaVPTrirLMVdirBvzI/MxfINxpl5q&#xA;lg9x5dv3a2uL233lt7gDknJGIDrIgboQRxPXFVv5UfmLP5+ttY1iOAWukQXn1PTIG/vikcYdpZdz&#xA;u5kFANhSm+5KrO8VdirsVYj+bX/ku9Z/4xx/8nkyvL9Jdz7P/wCO4/efuKj+TX/kttH/AOjn/qKl&#xA;xw/SGftJ/j2T/N/3MUy1v/lMPLX/AEff8mBljo0R5J/5QzQf+2daf8mExV5f+b3/AJM7yt/0bf8A&#xA;UWcxsv1B7j2e/wAQzf53+4e1ZkvDuxV2KqN7ard2sts0kkSyqVMkLtHIAf5XWjKfcb4q+ePOP/ON&#xA;OlXPn3QrXS5bxdJ1JLufXLyWX15Yzb8CrB5AfilaULvXucVe2eSPK135X0ZdIk1e41e1goLKS7Vf&#xA;Wij/AN9mRac1H7NRt06UoqyHFXYq7FXYq7FXYq8w/NX8mrjz4J57rXbpfq0TnRtKjEcdrHcemQrS&#xA;1DM/JqVatQKgUxVKfyN/JrTNC0HSPMVw9/aeYrmH1byJZ3ijKuxZI5IQFDAJxqr13xV7LirsVdir&#xA;Efza/wDJd6z/AMY4/wDk8mV5fpLufZ//AB3H7z9xUfya/wDJbaP/ANHP/UVLjh+kM/aT/Hsn+b/u&#xA;Yplrf/KYeWv+j7/kwMsdGiPJP/KGaD/2zrT/AJMJiry/83v/ACZ3lb/o2/6izmNl+oPcez3+IZv8&#xA;7/cPasyXh3Yq7FXYq7FXYq7FXYq7FXYq7FXYq7FXYq7FXYq7FWI/m1/5LvWf+Mcf/J5Mry/SXc+z&#xA;/wDjuP3n7io/k1/5LbR/+jn/AKipccP0hn7Sf49k/wA3/cxTLW/+Uw8tf9H3/JgZY6NEeSf+UM0H&#xA;/tnWn/JhMVeX/m9/5M7yt/0bf9RZzGy/UHuPZ7/EM3+d/uHtWZLw7sVdirsVdirBvPP5z+Q/JV+N&#xA;O1q6m/SLRCcWkEEkjemxIU8qLHuVP7WKvO9S/wCcvfLavw0fy/fXzk0QXEkVvyPt6f1k4qgP+V3/&#xA;AJ765t5d8jGCJ/szy211KB8pWMEX3jFXHSv+cuNcq897Fo8e7JFzs4velYFlk/4I4q1+lv8AnLby&#xA;/vc2MetQJWh9O0n5Ae1s0U33iuKu/wChmPzC0TbzX5GeClA7gXNkB4kCdJvmPi+nFU90r/nLbyBc&#xA;ALqGn6jYSHqwSKeMf7JXV/8AhMVeq+UPOfl3zfpH6W0C5N1YiRoWdo5IiJEALKVkVTsGHtiqd4q7&#xA;FXYq7FWI/m1/5LvWf+Mcf/J5Mry/SXc+z/8AjuP3n7io/k1/5LbR/wDo5/6ipccP0hn7Sf49k/zf&#xA;9zFMtb/5TDy1/wBH3/JgZY6NEeSf+UM0H/tnWn/JhMVeX/m9/wCTO8rf9G3/AFFnMbL9Qe49nv8A&#xA;EM3+d/uHtWZLw75V8n/mT/zkx5xtri58ttDfQWriOd/T0+Hi7DkBSYxk7eGKsg+t/wDOYv8AyxQ/&#xA;fpP/AFUxV31v/nMX/lih+/Sf+qmKu+t/85i/8sUP36T/ANVMVYQLPzrqn56+W7T8zbOGXUZzCklo&#xA;620kT21ZCgZYC8R+LlscVfWem6Fomlpw0zT7axSlONtDHCKeFEC4qjsVdirsVdirA/zU8n+U7jyH&#xA;5lvZ9GsZL230q9mt7praIzRyR27ujpJx5KVYV2OKvnv8op/+cgU8quvkG3jl0P61IWZzYA+vxTmP&#xA;9JdX+zx9sVZt9b/5zF/5Yofv0n/qpirvrf8AzmL/AMsUP36T/wBVMVd9b/5zF/5Yofv0n/qpiqJ/&#xA;Kn8yvzXvfzWfyf5znjV7aCV7q0SK2BWRY1dP3kAIOzA7Nir1P82v/Jd6z/xjj/5PJleX6S7n2f8A&#xA;8dx+8/cVH8mv/JbaP/0c/wDUVLjh+kM/aT/Hsn+b/uYplrf/ACmHlr/o+/5MDLHRojyT/wAoZoP/&#xA;AGzrT/kwmKvL/wA3v/JneVv+jb/qLOY2X6g9x7Pf4hm/zv8AcPasyXh3z9/zh9/yjfmD/mMi/wCT&#xA;WKvoHFXYq7FXzr+YP/rU/lT/AIw2v/Ep8VfRWKuxV2KuxV2Ksa/M3/yW/mv/ALY2of8AULJirz//&#xA;AJxR/wDJXy/9tK4/5NxYq9lxV2KuxV86+Wf/AFrbXP8AjDJ/1CxYq9c/Nr/yXes/8Y4/+TyZXl+k&#xA;u59n/wDHcfvP3FR/Jr/yW2j/APRz/wBRUuOH6Qz9pP8AHsn+b/uYplrf/KYeWv8Ao+/5MDLHRojy&#xA;T/yhmg/9s60/5MJiry/83v8AyZ3lb/o2/wCos5jZfqD3Hs9/iGb/ADv9w9qzJeHfP3/OH3/KN+YP&#xA;+YyL/k1ir6BxV2KuxV8t/nprOo6J+f2i6rptmdQvrOztpLeyUMxlYPMOICAt92Kp1/0MP+bX/lvp&#xA;v+RF5/zRirv+hh/za/8ALfTf8iLz/mjFUJqX/OT35iaXEs2p+SxYxO3BJLlbmFWaleILqoJoMVRM&#xA;f/ORf5ryIskfkCV43AZHWG8IIO4IITFV3/Qw/wCbX/lvpv8AkRef80Yqlnmn89vzP1Pyzq+m3vka&#xA;W0s72yuLe5uzDdgRRSxMjyEsgUcFau+2Ks4/5xR/8lfL/wBtK4/5NxYq9lxV2KuxV86+Wf8A1rbX&#xA;P+MMn/ULFir1z82v/Jd6z/xjj/5PJleX6S7n2f8A8dx+8/cVH8mv/JbaP/0c/wDUVLjh+kM/aT/H&#xA;sn+b/uYplrf/ACmHlr/o+/5MDLHRojyT/wAoZoP/AGzrT/kwmKvL/wA3v/JneVv+jb/qLOY2X6g9&#xA;x7Pf4hm/zv8AcPasyXh3z9/zh9/yjfmD/mMi/wCTWKvoHFXYq7FXzr+YP/rU/lT/AIw2v/Ep8VfR&#xA;WKuxV4R/zl7/AMoTo3/bSH/JiTFXsvln/lG9J/5g7f8A5NLiqZYqxr8zf/Jb+a/+2NqH/ULJirz/&#xA;AP5xR/8AJXy/9tK4/wCTcWKvZcVdirsVfOvln/1rbXP+MMn/AFCxYq9c/Nr/AMl3rP8Axjj/AOTy&#xA;ZXl+ku59n/8AHcfvP3FR/Jr/AMlto/8A0c/9RUuOH6Qz9pP8eyf5v+5imWt/8ph5a/6Pv+TAyx0a&#xA;I8k/8oZoP/bOtP8AkwmKvL/ze/8AJneVv+jb/qLOY2X6g9x7Pf4hm/zv9w9qzJeHfIH5D/nR5W/L&#xA;7SdUs9Ztb64lvrhJojZxwuoVU4nl6ksRrXwxV6j/ANDc/lv/ANW3Wf8AkRa/9lOKu/6G5/Lf/q26&#xA;z/yItf8AspxV3/Q3P5b/APVt1n/kRa/9lOKvPf8AlYGjeev+cifKut6RDcQWqmC2KXaoknOP1WJp&#xA;G8q0+Md8VfWGKuxV4R/zl7/yhOjf9tIf8mJMVey+Wf8AlG9J/wCYO3/5NLiqZYqxr8zf/Jb+a/8A&#xA;tjah/wBQsmKvnb8kvz58oeRfJr6Jq9nqE9015Lch7SOB4+EiooFZJomr8B7Yq9A/6G5/Lf8A6tus&#xA;/wDIi1/7KcVd/wBDc/lv/wBW3Wf+RFr/ANlOKu/6G5/Lf/q26z/yItf+ynFWF/lV5o0/zV/zklf+&#xA;YNPjlis7+3meGO4CrKAsEaHkEZ16r2bFXun5tf8Aku9Z/wCMcf8AyeTK8v0l3Ps//juP3n7io/k1&#xA;/wCS20f/AKOf+oqXHD9IZ+0n+PZP83/cxTLW/wDlMPLX/R9/yYGWOjRHkn/lDNB/7Z1p/wAmExV5&#xA;f+b3/kzvK3/Rt/1FnMbL9Qe49nv8Qzf53+4e1ZkvDpJ/gXyT/wBS9pv/AEhwf80Yq7/Avkn/AKl7&#xA;Tf8ApDg/5oxV3+BfJP8A1L2m/wDSHB/zRirv8C+Sf+pe03/pDg/5oxV47+aP5I+dLjzxaeavy/XT&#xA;tNFlBEsEEXG3kWdGfk4T0vRNVcblsVS//GH/ADld5f31HQU1hFrVhbxTlgPAae6H5bYquj/5yp8x&#xA;aU6w+aPJctq9QGdZJbcg96RTxH/ieKsQ/PD87fLP5g+VtOsNMtLy0vbW8+sTJcrHw4ek6fA6O5O7&#xA;DqoxVnEP/OWHk7TdHsbKz0i/vbi2t4YpDJ6UEZZIwp4tylbqO64qhP8AoYr82NcH/OreRGZWHwyN&#xA;FdXqgVpXlEtuuKqF/a/85W+b7K4sLqCHS9Lvo5ILmFhZwq0UqlXQ1MtwAVam2KvQvyg/Ju18seUj&#xA;p3mnTtL1LU3uZJ/XEK3HGN1QKnOaNW2KnYbYqzf/AAL5J/6l7Tf+kOD/AJoxV3+BfJP/AFL2m/8A&#xA;SHB/zRirv8C+Sf8AqXtN/wCkOD/mjFURYeV/LWnXAudP0mys7kAqJre3iieh6jkig74qkn5tf+S7&#xA;1n/jHH/yeTK8v0l3Ps//AI7j95+4qP5Nf+S20f8A6Of+oqXHD9IZ+0n+PZP83/cxTLW/+Uw8tf8A&#xA;R9/yYGWOjb/Lon/APlxCavFptpE5/wAuKFUb/hlOKvOvztP1bzl5VvmA4IwNd/8AdU6Ma/8ABZj5&#xA;uYe29mfVps0PxvEvZsyHiXYq7FXYq7FXYq7FWnjSRCkih0bZlYVB+YOKsb1L8s/y81NuV95b06WT&#xA;b959WiVzQ13dVVvxxVHaV5P8p6Rx/RWjWNiVpRre2iiao6Hkqg198VTfFXYq7FXYq7FXYq7FWFfn&#xA;LcCH8udV3o0voRr9M6V/4UHK8v0l3ns5C9bDyv8A3JVfyhhaH8udGRupSZ/DZ55HH4Nji+kMfaGX&#xA;Frch932RCO1ej+dfLsY6pBqE/jsiwxH8Zhv/AFyx0rXkI+nok9kft6fqF/akf5C3cjRf8kWQ4qwj&#xA;/nIjT2k0PStQA/3muXhJ8BOnL9cOUZxsHr/Y/LWWcP50b+R/a9M0HURqWiafqANfrdvFOSPGRAx/&#xA;Xl0TYeY1WHwssofzZEfIo7C47sVdirsVdirsVdirsVdirsVdirsVdirsVdirsVeW/wDOQeoiHyrZ&#xA;WIPx3l2GI8UhRif+GZcoznZ6v2Rw8WolP+bH7z/azzylp507yvpNiwo9vaQpJ2+MIOf/AA1ctiKA&#xA;dB2hm8TUTn3yP3oMf6R+YZpv+jNJAJ8DqFzWn/ThknDW6Mxs/Oev6e2yXyW2rW/gS0f1ScL/AKpt&#xA;Y2b/AF/fFVP8zdFOseR9VtUXlNHF9YgA3POAiSg92ClfpyGQXEu17E1Pg6uEjyJo/Hb9qR/kZrg1&#xA;DyUtk7Vn0uV4CD19Nz6kZ+XxFR8shhlcXP8AajS+HquIcsgv48j+v4vRMuebdiqBuNasLfVrTS5m&#xA;dLq9SRrYmN/Scxjk0Ylpw9TiGbhXlxUmlBiqOxV2KuxV2KuxV2KuxV2KuxVbLLFFE8srrHFGpaSR&#xA;iFVVUVJJOwAGKqGmanY6nYxX1jJ6ttMoaN+LISDuKq4Vh9IxVE4q7FXif5it/in82NG8txfvLayK&#xA;Lcr1A5H17j/kiqj55jZPVMB7nscflezsmc7Sldf7mP8AsntmZLwzG/KP+l6h5g1jql3fta2zf8U6&#xA;eotiP+khJj9OKtea/wDcfqmi+YRtHazmwvz/AMuuoFI+R9kuEhYnsvLFWS4q8P8ALL/4C/Nu70WX&#xA;93pOrkJbk7KFlJa2Yf6rExffmNH0zp7vWj+UOzo5Rvkx8/h9X2ep7hmS8I7FXivnvTfKvlON9d82&#xA;a/eav5u9YTaAfUjSaKKGcSpHbwqFhiQxxBLiYr0LbioGKvR/y/8AN8fmzyzBqwiWGfnJb3cUbiWI&#xA;TwOY5PSlWqyRkiqMDuMVZHirsVdirsVdirsVdirsVee+ffN1pfSar5M0/S28wXkVmJ9Y02K8+ozG&#xA;1k6pAQDJM5UfEiUFDQtVgCqgvyx8jtBfweaI9Vm1LRr21S80mS7WmoE3kSIyXk+zTrFDDGI+Xidv&#xA;hU4q9PxVAa9rNpouj3mq3ZpBaRmRh0LEbKg92aij3wSNC3I0umlnyxxx5yP4+Tyz8kNJu9T1bV/O&#xA;eojlNcyPFAxGxeRvUmZfZfhUfSMowiyZPWe0+ojix49LDlEAn4bD9b07zRrDaPoF5qEaercRpwtI&#xA;f9+XMpEcEX+zldV+nMh4tf5c0ddG0Kx0sP6rWkKRyTHrJJSskh93erH54qr6rplpqmmXWm3i87W8&#xA;ieCdQaEpIpU0PY77HFUr8mand3elNZ6ixOsaTIbDUidi8kQBSff9meJklH+tirF/zq8mvrOgrq9k&#xA;hOpaQDJRftPB1cCndKcx9PjlOaFi3pfZrtIYc3hz+jJ9h6fPl8k0/K3zsnmjy5GZ3rqtkFhv1PVj&#xA;T4JflIB99clinxBxO3ezDpc5r+7lvH9Xw+5mWWOlSLzj5Q0zzRpL2N6i+pT9xPQFk+JWZQSPsvwC&#xA;uO4xVhUHmX8wJfzG0ny0YbHRNKhgm1DUrS0pcOtrCzRqHnkSOMLNI0ZX00BALVNRirLvJ/n7QvNQ&#xA;uP0d6q+i8vomVCi3EEczQi5t3PwyRMydV6dDTbFWSYq7FXYq7FXYq7FWAaz+anlxvM7+SxLeWd1O&#xA;/wBSl1eP0YktriSJ5EA+sHmeSxNxcRMlehxVLNP8m6l5hgHl7zfbTPeeW5Iv0R50s5DBLcQfD8Ky&#xA;BhMsrxgxz0qtd68qYq9OtraC1t4ra3QRW8CLHDGuyqiDiqgeAAxVUxV4v+bnmC78ya/Z+RdDPqv6&#xA;y/XWX7Jm7IxH7MS1Z/f3XMfLKzwh7f2f0kdNhlq8u23p93/HuQ/a9Y8vaJaaHotnpNp/c2kYQNSh&#xA;ZurOfdmJY5fEUKeR1eqlnyyyS5yP4HwSe+P6b842unoeVh5e432oeDXsqkWkR/4xoWmYdj6ZwuMy&#xA;jFXYqxbzIDoWrxea4gfqRRbTzCg6C2DExXZA6m2Zzy/4rZj+yMVZQrI6BlIZGFQRuCDirw3zbo2p&#xA;/lr5vj8z6HHy0O7crPbCoReZq8DU6Kacoz2Py3xpAwNjk972fqcfaemOnyn97Hkful+t7F5f1/TN&#xA;f0qDU9Ol9S3mHQ05Iw+0jgVoy9xmRGQIsPF6vSZNPkOOYqQ/FjyTHC4yU+ZvLOn+YdJu9Oumlg+t&#xA;wSWpu7ZvSuEjlpzVJB+y3EclPwtTcHFXnnmPyxrnljT7nUrCV9U1eewj8teXbOytDbWdhb3Dxq00&#xA;vFpmHFlDtIWA2AoB0VTPUNa84eWNY0Dy1prp5lmubKZ5Ybxmiu2+poWkuHu6ui+rJIkaK0XX9ob4&#xA;qyW288aQ+pazp90Hsn8vwwzatdTlBaxCeITACXlvRSa1A6fKqqsfO3lNdNn1OTVIIbG2kEN1NM3p&#xA;CGRvsrKH4mPlUFeQFQQRsRiqNsNb0rULq7tbO4WaexKLdKob4DKvNNyKHku4oemKpNL+Y3luDzhP&#xA;5VuJGt762txdS3MxjjtwpMYVeTOHq3qrT4eJNRWopiqQ/nl5b1fV/J5uNKkuJLjTpBNJpcLScLyF&#xA;vgkjMcTIzuobnHv9oe+Kqtz+VHlrX4fK97qUc0k2i2cdtIL2KJ57qARqBFeCQSKfiXmdqhq0IxVn&#xA;VlZWdjaxWdlBHbWkChIbeFQkaKOgVVAAGKq2KsE/NP8AMWHyvpps7Nw+uXikW6dfSQ7GZx/xEdz7&#xA;A5VlycI83f8AYXY51U+KX91Hn5+X60D+T/kCbR7R9f1dS2t6iOSrJUvDE55HlX/dkh3buOnjgxQr&#xA;c83I9ou1hml4OL+6h9p/UOn9jNfMmuJo2ltdCI3F3IywWFmpo09zKaRRD5ndj+yoLHYZc8wt8r6I&#xA;+j6UsNxKLjUbh2utTuht6t1MayMK9FH2UHZAB2xVNsVdirTokiNHIodHBVlYVBB2IIOKsT0aV/LG&#xA;pReW7st+h7kkeXbxtwlNzp8jH9pBvCT9pPh6ruqyTUtNsdTsZrC/hW4tLheEsT9CP4EdQR0wEW24&#xA;c08UxOBqQeIXdl5m/KXXze2XK/8ALN41HQ1CkV2SQgEJKo+y9Pi+8DGIOM+T3ePLg7Xw8MvRnj+L&#xA;HfHvHT7XsXlnzVovmTTlvtKnEqbCWI7SRMf2ZF7H9fbMiMgRs8XrdBl00+DIK+4+5Nsk4bsVS9dA&#xA;0dddOvLbKNXa3No12CwYwFlfgRXifiQEbVxVit9+Vy3Wh+Z9PbU2kuvMl7HqDXssSsYng9ExRMil&#xA;BJEptwOO2xIxVD3/AJA167sfMNzcPZ3WreYbrTpZrJmkjsY4NPaL91yMczuXWNuTGMVqBSgxVNvI&#xA;Pkibykmp2aXjXWmTzpJpkchZ5LeARhRbl23dY6UQnfjt2xVL/MP5OeWdf83DzPqFxeG6UQmKKKRY&#xA;hG9v9gxyqomQdyqvTl8XXFWeYq7FXYqwP8xvzU03yvE9lZFbzXXHwwdUhr0aah+5ep9hlWTKI+96&#xA;DsfsGeqPHL04u/v9362P/lx+W2oXmof4v84c5tRmf1rW1n+0G/ZllXsR+wn7P3AQx4yTZdh2z21C&#xA;EPy2m2gNiR9w/Ser1e8vLWztZbu7lSC1gQyTTSEKiIoqzMx2AAzIePY35ftrvXNUXzTqUTQQRqye&#xA;XrGQUeKCQUe5lU9Jpx0B3RPh6lsVZTirsVdirsVQer6Rp+r6fLYX8QmtpgKipVlZTVXRhRkdGAZW&#xA;U1B3GKpHpWs32j38WgeYpjK0x4aPrLAKt2O0M1AFS5UdthJ9pd6qqrIr2ytL61ltLyFLi2mUpLDI&#xA;Aysp7EHARbPHlljkJRNSHV455h/K7zL5V1Ftf8iXEjRrUyWIPKVV6lQDtMm32T8Xz65jyxmJuL2m&#xA;j7cwauHg6sC/53T/AI6fPl7k58o/njpF6VsvMcf6J1BTwaajfV2Ybb1+KI+zbe+SjmB5uF2h7L5I&#xA;evAfEh3fxft+HyemwXEFxCk9vIk0MgqksbBlYeIYVBy95ecDE0RRX4sXYq7FXYq7FXYql2t+Y9D0&#xA;O2+s6texWkVCV5n4mp2RBVmP+qMBkBzcnS6PLnlw44mR/HM9Hk+u/mz5l80XjaJ5GspUEnwte0/f&#xA;cenIfsQr/lMa/LMeWUy2i9fpewMGlj4urkP6vT9cj5feyLyD+T9jokq6rrbrqOtE8xWrQxOd6jlu&#xA;71/ab6B3ycMVbnm63tb2innHh4vRi+0/qHk9BvLy0srWW7u5kt7WBDJNPIwVERRUszHYAZc8yxe3&#xA;t7rzfdRX9/FJbeWLd1l0/TpVaOS9kQ8kublGAZYlYViiYVJ+J+y4qy7FXYq7FXYq7FXYqhtT0zT9&#xA;UsZrDUIEubOccZYZBUHeoPsQdwRuDuMVY2tzrvlX4L4z615cX7F+oMt9aKO1wi/FcRj/AH4g5gfa&#xA;Vt3xVk1hf2OoWkV5Y3Ed1aTDlFPCwdGHiGWoxVIfNX5d+VfMyltQtAl2RQX0FI5x82oQ3+zByEsY&#xA;k7TQdsajS/RL0/zTuP2fB5tc/lx+Y/kuZ7zyjqL31nXk9qtA5A/mgflHJ4VX4vADKfDlHk9NDtnR&#xA;a0cOphwy7/8Aj3MfHZOfLH56WMsw0/zTaNpd8p4PcKrejy6fGjfvI/x+jJRzd7ha72WmBx6eXiR7&#xA;uvwPI/Y9Qtbu1u7dLm1mS4t5BWOaJg6MPEMtQcvBeVyY5QPDIEEdCq4sHYqlPmHzVoHl61+s6veJ&#xA;bKf7uM/FI58ERasfuyMpAc3M0egzamXDjjxfcPeXlmpfm35v80XbaZ5H0ySNTs12yq8wB25Gv7qE&#xA;e7E/MZQcpltF6vD7P6bSx8TVzB8un65InRPyMu764/SPnLVJLu5ehe3idnY96PO9T9Cj5HCMN7ya&#xA;9T7URxx4NLARj3kfdEfp+T1LRtC0fRbMWelWkdpbjcpGKFj0qzH4mPuxrl4iByeU1OqyZ5cWSRkf&#xA;x8kPrvmfS9G9KO4Z5r+5qLPTbdfVuZyO0cY3oO7Gir3IwuOllr5e1PWrqPUvNQQRQsJLDy/E3O3h&#xA;YbrJctsLiYdv2EP2QT8eKspxV2KuxV2KuxV2KuxV2KuxVjl/5NjW7l1Hy/dtoeqTNznaFQ9rcN43&#xA;NqSEc/5a8ZP8rFVNfNOsaUOHmfS2iiXrq+nBrqzp/NIgH1iH35IyD+fFWQWGoWGoWkd5YXMV3aSi&#xA;sVxA6yRsPFWUkHFUn80+RfLPmaHjqloGnApHdx/BOnycdR7NUe2QlAS5uw0PamfSn93LbuPL5fqe&#xA;XXfkP8xfIVxJf+U7x9Q02vKW1VeTkD/flvuH8OSfF8spMJR5PV4+1dF2hEQ1ERCff+qXT3Hb3si8&#xA;rfnpoF8hg1+M6Texg83ozwMV60oC6t/kkfTk45gebrdd7LZsZvCfEifn+o+/7Ep1z85dd1y8OkeR&#xA;dPkklc0F46c5COnJYzVEX/Kf6QMjLMTtFzNL7OYsEfE1chXde3z5n3D7VXy9+SN1fXX6V8638l3d&#xA;yHk9mkhYn2lmO5+SfQ2McN7yYaz2njjj4eliIxHWvuj+v5PVdN0rTdLtFtNOto7S2T7MUShVr4mn&#xA;U+5y8AB5LNnnllxTJlLzQuteZ9E0YxR31yBdXFfqtlErTXMxHaKCMNI/0Lhaks+sec9a2t4R5b08&#xA;/wDHxcCO41B1/wCK4VLwQ+zSM58UGKploflnSdGMslqjSXtzQ3eoXDma6mI6epK9WIHZR8K9gBiq&#xA;a4q7FXYq7FXYq7FXYq7FXYq7FXYq7FWO33knT2vJNS0eaTRNWkPKW5s6COZv+Xm3NYZv9Yrz8GGK&#xA;qB80atopZPNVmEtE6a7Yq8loR4zw/HNbfM8kHd8VZLbXVtdW8dzaypPbyqHimiYOjKehVlqCMVY3&#xA;5p/Lbyl5lkE1/a+ndggm7tyIpWAPRzQhq9PiFfCmQljBdroe2tRphUJXHuO4/Ym+h+XtF0KzFppN&#xA;pHaQ7cuA+JyO7uas592OSjEDk4eq1mXPLiySMj+OXc7WvMWj6LHG2oXAjknJW2tkDSTzOBXhDCga&#xA;SRvZVOFxknJ846+o4cvLGmP+0RHNqci/6p9SC2qPH1G9lOKprovlnRdGDtZW4+tTAfWb6UmW6mI7&#xA;zTyFpH+k/LFU0xV2KuxV2KuxV2KuxV2KuxV2KuxV2KuxV2KuxV2KsbuvJq208l95auTot9IxkmhR&#xA;fUsZ3PX17WqrU93iKP4semKqQ87HS/3Pm21/Q8oB4X6FptPmoP8Adc4UGNm7RyqrHovLFXfpTzRr&#xA;4po0J0XS2/6W19FW5kU7g21m9OFf5p6f8Y2GKplovlXSNJlkuoUe41KcUudTumM11IPAytuqeCJR&#xA;B2AxVN8VdirsVdirsVdirsVdirsVf//Z</xmpGImg:image>
               </rdf:li>
            </rdf:Alt>
         </xmp:Thumbnails>
      </rdf:Description>
      <rdf:Description rdf:about=""
            xmlns:xmpMM="http://ns.adobe.com/xap/1.0/mm/"
            xmlns:stRef="http://ns.adobe.com/xap/1.0/sType/ResourceRef#"
            xmlns:stEvt="http://ns.adobe.com/xap/1.0/sType/ResourceEvent#">
         <xmpMM:InstanceID>xmp.iid:FC7F117407206811822ACDDA2CBCE4B1</xmpMM:InstanceID>
         <xmpMM:DocumentID>xmp.did:FC7F117407206811822ACDDA2CBCE4B1</xmpMM:DocumentID>
         <xmpMM:OriginalDocumentID>uuid:5D20892493BFDB11914A8590D31508C8</xmpMM:OriginalDocumentID>
         <xmpMM:RenditionClass>proof:pdf</xmpMM:RenditionClass>
         <xmpMM:DerivedFrom rdf:parseType="Resource">
            <stRef:instanceID>xmp.iid:0480117407206811822ABB576B6B8BD0</stRef:instanceID>
            <stRef:documentID>xmp.did:0480117407206811822ABB576B6B8BD0</stRef:documentID>
            <stRef:originalDocumentID>uuid:5D20892493BFDB11914A8590D31508C8</stRef:originalDocumentID>
            <stRef:renditionClass>proof:pdf</stRef:renditionClass>
         </xmpMM:DerivedFrom>
         <xmpMM:History>
            <rdf:Seq>
               <rdf:li rdf:parseType="Resource">
                  <stEvt:action>saved</stEvt:action>
                  <stEvt:instanceID>xmp.iid:0180117407206811822ABB576B6B8BD0</stEvt:instanceID>
                  <stEvt:when>2013-11-11T15:21:44-06:00</stEvt:when>
                  <stEvt:softwareAgent>Adobe Illustrator CS6 (Macintosh)</stEvt:softwareAgent>
                  <stEvt:changed>/</stEvt:changed>
               </rdf:li>
               <rdf:li rdf:parseType="Resource">
                  <stEvt:action>saved</stEvt:action>
                  <stEvt:instanceID>xmp.iid:FC7F117407206811822ACDDA2CBCE4B1</stEvt:instanceID>
                  <stEvt:when>2013-11-22T11:02:33-06:00</stEvt:when>
                  <stEvt:softwareAgent>Adobe Illustrator CS6 (Macintosh)</stEvt:softwareAgent>
                  <stEvt:changed>/</stEvt:changed>
               </rdf:li>
            </rdf:Seq>
         </xmpMM:History>
      </rdf:Description>
      <rdf:Description rdf:about=""
            xmlns:illustrator="http://ns.adobe.com/illustrator/1.0/">
         <illustrator:StartupProfile>Print</illustrator:StartupProfile>
      </rdf:Description>
      <rdf:Description rdf:about=""
            xmlns:xmpTPg="http://ns.adobe.com/xap/1.0/t/pg/"
            xmlns:stDim="http://ns.adobe.com/xap/1.0/sType/Dimensions#"
            xmlns:xmpG="http://ns.adobe.com/xap/1.0/g/">
         <xmpTPg:HasVisibleOverprint>False</xmpTPg:HasVisibleOverprint>
         <xmpTPg:HasVisibleTransparency>False</xmpTPg:HasVisibleTransparency>
         <xmpTPg:NPages>1</xmpTPg:NPages>
         <xmpTPg:MaxPageSize rdf:parseType="Resource">
            <stDim:w>1000.000000</stDim:w>
            <stDim:h>1000.000000</stDim:h>
            <stDim:unit>Points</stDim:unit>
         </xmpTPg:MaxPageSize>
         <xmpTPg:PlateNames>
            <rdf:Seq>
               <rdf:li>Cyan</rdf:li>
               <rdf:li>Magenta</rdf:li>
               <rdf:li>Yellow</rdf:li>
               <rdf:li>Black</rdf:li>
            </rdf:Seq>
         </xmpTPg:PlateNames>
         <xmpTPg:SwatchGroups>
            <rdf:Seq>
               <rdf:li rdf:parseType="Resource">
                  <xmpG:groupName>Default Swatch Group</xmpG:groupName>
                  <xmpG:groupType>0</xmpG:groupType>
               </rdf:li>
            </rdf:Seq>
         </xmpTPg:SwatchGroups>
      </rdf:Description>
      <rdf:Description rdf:about=""
            xmlns:pdf="http://ns.adobe.com/pdf/1.3/">
         <pdf:Producer>Adobe PDF library 10.01</pdf:Producer>
      </rdf:Description>
   </rdf:RDF>
</x:xmpmeta>
                                                                                                    
                                                                                                    
                                                                                                    
                                                                                                    
                                                                                                    
                                                                                                    
                                                                                                    
                                                                                                    
                                                                                                    
                                                                                                    
                                                                                                    
                                                                                                    
                                                                                                    
                                                                                                    
                                                                                                    
                                                                                                    
                                                                                                    
                                                                                                    
                                                                                                    
                                                                                                    
                           
<?xpacket end="w"?>
	</metadata>
<g>
	<g>
		<g>
			<path fill="#FFFFFF" d="M793.948,2.8H206.052h-41.993v41.992v573.074c0,67.363,19.437,132.208,56.208,187.521
				c36.188,54.438,87.028,96.624,147.022,122c25.258,10.682,84.792,42.9,105.602,54.413l6.779,3.751L500,996.801l20.332-11.25
				l6.774-3.748c20.813-11.519,80.353-43.737,105.603-54.416c59.996-25.376,110.836-67.562,147.024-122
				c36.771-55.312,56.208-120.157,56.208-187.521V44.792V2.8H793.948z"/>
			<path fill="#323132" d="M835.941,2.8v41.992v573.074c0,67.363-19.438,132.208-56.208,187.521
				c-36.188,54.438-87.028,96.624-147.024,122c-25.25,10.679-84.789,42.897-105.603,54.416l-6.774,3.748L500,996.801l-20.331-11.25
				l-6.779-3.751c-20.809-11.513-80.344-43.731-105.602-54.413c-59.994-25.376-110.833-67.562-147.022-122
				c-36.771-55.312-56.208-120.157-56.208-187.521V44.792V2.8h41.993h587.896H835.941 M838.74,0h-2.799h-41.993H206.052h-41.993
				h-2.8v2.8v41.992v573.074c0,67.917,19.598,133.297,56.676,189.07c36.494,54.896,87.762,97.438,148.263,123.028
				c25.128,10.627,84.558,42.788,105.337,54.284l6.779,3.751l20.331,11.25L500,1000l1.356-0.75L521.688,988l6.773-3.748
				c20.76-11.488,80.15-43.635,105.339-54.287c60.502-25.589,111.771-68.133,148.265-123.028
				c37.078-55.773,56.676-121.153,56.676-189.07V44.792V2.8V0L838.74,0z"/>
		</g>
	</g>
	<polygon fill="#EC1B42" points="779.951,44.792 220.049,44.792 206.052,44.792 206.052,58.79 206.052,180.44 206.052,194.438 
		220.049,194.438 779.951,194.438 793.948,194.438 793.948,180.44 793.948,58.79 793.948,44.792 	"/>
	<g>
		<path fill="#FFFFFF" d="M304.092,95.058h5.37v10.873c-3.002,3.305-7.297,4.959-12.877,4.959c-4.701,0-8.632-1.547-11.804-4.642
			c-3.17-3.093-4.758-7.005-4.758-11.737s1.62-8.672,4.847-11.826c3.234-3.152,7.137-4.732,11.715-4.732
			c4.582,0,8.391,1.334,11.421,4.002l-2.867,4.096c-1.249-1.061-2.497-1.796-3.755-2.206c-1.256-0.408-2.724-0.615-4.385-0.615
			c-3.222,0-5.917,1.039-8.102,3.119c-2.183,2.075-3.277,4.804-3.277,8.188c0,3.38,1.066,6.1,3.185,8.142
			c2.122,2.045,4.698,3.073,7.708,3.073c3.023,0,5.551-0.656,7.578-1.957V95.058z"/>
		<path fill="#FFFFFF" d="M323.926,103.292l-3.188,7.231h-5.731l14.013-31.801h5.73l14.012,31.801h-5.73l-3.187-7.231H323.926z
			 M337.664,98.333l-5.777-13.104l-5.781,13.104H337.664z"/>
		<path fill="#FFFFFF" d="M381.792,89.054c0,5.247-2.29,8.547-6.868,9.916l8.322,11.554h-6.821l-7.599-10.689h-7.052v10.689h-5.37
			V78.723h11.828c4.854,0,8.329,0.82,10.42,2.461C380.745,82.821,381.792,85.442,381.792,89.054z M374.648,93.557
			c1.093-0.94,1.637-2.449,1.637-4.527c0-2.077-0.56-3.502-1.683-4.278c-1.125-0.771-3.125-1.156-6.003-1.156h-6.825v11.37h6.688
			C371.496,94.965,373.558,94.497,374.648,93.557z"/>
		<path fill="#FFFFFF" d="M416.823,82.892c3.063,2.77,4.589,6.633,4.589,11.576c0,4.942-1.487,8.852-4.457,11.733
			c-2.969,2.882-7.518,4.322-13.645,4.322h-10.559V78.723h10.922C409.377,78.723,413.759,80.111,416.823,82.892z M416.005,94.604
			c0-7.28-4.173-10.922-12.516-10.922h-5.368v21.795h5.962c3.852,0,6.802-0.919,8.847-2.75
			C414.979,100.89,416.005,98.183,416.005,94.604z"/>
		<path fill="#FFFFFF" d="M453.896,78.723v5.053h-16.969v8.417h15.243v4.779h-15.243v8.505h17.513v5.047h-22.881V78.723H453.896z"/>
		<path fill="#FFFFFF" d="M488.378,78.723h5.368v31.801h-5.824l-18.015-23.2v23.2h-5.37V78.723h5.37l18.472,23.749V78.723z"/>
		<path fill="#FFFFFF" d="M536.008,110.523h-6.005l-12.785-31.801h6.004l9.787,23.749l9.775-23.749h6.001L536.008,110.523z"/>
		<path fill="#FFFFFF" d="M559.257,103.292l-3.187,7.231h-5.733l14.014-31.801h5.732l14.012,31.801h-5.734l-3.187-7.231H559.257z
			 M572.994,98.333l-5.774-13.104l-5.778,13.104H572.994z"/>
		<path fill="#FFFFFF" d="M591.73,110.523V78.723h5.366v26.708h14.518v5.093H591.73z"/>
		<path fill="#FFFFFF" d="M620.713,110.523V78.723h5.369v26.708h14.506v5.093H620.713z"/>
		<path fill="#FFFFFF" d="M672.025,78.723v5.053h-16.97v8.417H670.3v4.779h-15.244v8.505h17.519v5.047h-22.888V78.723H672.025z"/>
		<path fill="#FFFFFF" d="M695.178,110.523h-5.452V97.97l-11.828-19.247h5.862l8.692,14.468l8.688-14.468h5.872L695.178,97.97
			V110.523z"/>
		<path fill="#FFFFFF" d="M359.71,156.048c1.843,0,3.441-0.309,4.772-0.935c1.334-0.62,2.724-1.613,4.184-2.975l3.458,3.546
			c-3.367,3.729-7.456,5.597-12.259,5.597c-4.809,0-8.795-1.548-11.966-4.643c-3.166-3.092-4.753-7.001-4.753-11.736
			c0-4.732,1.614-8.672,4.846-11.83c3.229-3.149,7.308-4.729,12.24-4.729c4.928,0,9.041,1.821,12.342,5.46l-3.411,3.731
			c-1.516-1.454-2.947-2.474-4.298-3.051c-1.348-0.574-2.931-0.864-4.753-0.864c-3.211,0-5.909,1.039-8.099,3.12
			c-2.183,2.074-3.275,4.729-3.275,7.961c0,3.229,1.088,5.927,3.253,8.098C354.159,154.966,356.737,156.048,359.71,156.048z"/>
		<path fill="#FFFFFF" d="M407.835,156.526c-3.215,3.142-7.185,4.711-11.92,4.711c-4.731,0-8.705-1.569-11.92-4.711
			c-3.216-3.141-4.818-7.053-4.818-11.739c0-4.683,1.602-8.598,4.818-11.736c3.215-3.136,7.189-4.708,11.92-4.708
			c4.735,0,8.705,1.572,11.92,4.708c3.215,3.139,4.823,7.054,4.823,11.736C412.658,149.474,411.05,153.386,407.835,156.526z
			 M403.898,136.624c-2.169-2.242-4.825-3.365-7.983-3.365c-3.152,0-5.815,1.123-7.984,3.365c-2.169,2.244-3.252,4.965-3.252,8.163
			c0,3.201,1.083,5.925,3.252,8.166c2.169,2.245,4.833,3.371,7.984,3.371c3.158,0,5.814-1.126,7.983-3.371
			c2.169-2.241,3.253-4.965,3.253-8.166C407.151,141.589,406.067,138.868,403.898,136.624z"/>
		<path fill="#FFFFFF" d="M422.669,160.915v-31.801h5.367v26.704h14.507v5.097H422.669z"/>
		<path fill="#FFFFFF" d="M451.64,160.915v-31.801h5.37v26.704h14.511v5.097H451.64z"/>
		<path fill="#FFFFFF" d="M502.959,129.114v5.052h-16.97v8.418h15.239v4.778h-15.239v8.506h17.512v5.047H480.62v-31.801H502.959z"/>
		<path fill="#FFFFFF" d="M535.623,145.449h5.366v10.875c-3.005,3.303-7.293,4.957-12.878,4.957c-4.701,0-8.633-1.548-11.801-4.643
			c-3.174-3.092-4.753-7.001-4.753-11.736c0-4.732,1.604-8.672,4.845-11.83c3.227-3.149,7.13-4.729,11.709-4.729
			s8.389,1.337,11.421,4.005l-2.865,4.093c-1.241-1.061-2.502-1.796-3.758-2.206s-2.716-0.615-4.39-0.615
			c-3.218,0-5.916,1.039-8.091,3.12c-2.18,2.074-3.276,4.803-3.276,8.188c0,3.379,1.059,6.097,3.186,8.139
			c2.12,2.048,4.684,3.076,7.709,3.076c3.012,0,5.54-0.653,7.576-1.958V145.449z"/>
		<path fill="#FFFFFF" d="M551.264,129.114h5.367v31.801h-5.367V129.114z"/>
		<path fill="#FFFFFF" d="M573.198,153.684l-3.186,7.231h-5.733l14.013-31.801h5.729l14.016,31.801h-5.729l-3.19-7.231H573.198z
			 M586.937,148.725l-5.782-13.102l-5.775,13.102H586.937z"/>
		<path fill="#FFFFFF" d="M615.186,134.026v26.889h-5.368v-26.889h-9.647v-4.912h24.66v4.912H615.186z"/>
		<path fill="#FFFFFF" d="M656.222,129.114v5.052h-16.978v8.418h15.248v4.778h-15.248v8.506h17.518v5.047h-22.883v-31.801H656.222z"
			/>
	</g>
	<polygon fill="#FFFFFF" points="530.116,150.852 538.85,150.852 540.989,145.481 530.116,145.481 	"/>
	<path fill="#222222" d="M608.87,446.435v-15.972l-107.746-17.956L500,412.312l-108.869,18.15v15.972H255.044v149.694h136.086
		v15.969l107.747,17.962l1.122,0.183l108.87-18.145v-15.969h136.086V446.435H608.87z M391.131,582.525H268.655V460.041h122.476
		V582.525z M493.195,615.311l-88.458-14.742v-72.48h88.458V615.311z M595.262,596.129v4.439l-88.457,14.742v-87.223h88.457V596.129z
		 M595.262,446.435v68.038H404.737v-68.038v-4.442L500,426.113l95.262,15.879V446.435z M731.345,582.525H608.87V460.041h122.475
		V582.525z"/>
	<path fill="#EC1B42" d="M779.951,229.432v388.435c0,115.958-68.569,215.455-169.051,257.954
		c-33.493,14.164-110.9,56.99-110.9,56.99s-77.407-42.826-110.9-56.99c-100.481-42.499-169.05-141.996-169.05-257.954V229.432H500
		H779.951 M793.948,215.434h-13.997H500H220.049h-13.998v13.998v388.435c0,59.065,17.008,115.871,49.186,164.274
		c31.617,47.562,76.021,84.411,128.41,106.57c32.439,13.718,108.809,55.921,109.577,56.348l6.776,3.748l6.776-3.748
		c0.768-0.427,77.146-42.632,109.575-56.348c52.39-22.159,96.794-59.009,128.411-106.57
		c32.178-48.403,49.186-105.209,49.186-164.274V229.432V215.434L793.948,215.434z"/>
	<g>
		<path fill="#222222" d="M338.956,715.606c0.778,1.399,1.428,2.522,1.95,3.37c0.522,0.848,1.235,1.938,2.141,3.272
			c0.905,1.335,1.619,2.426,2.141,3.273c0.311,0.504,0.85,1.132,1.619,1.883l-4.608,3.632c-0.229-0.055-0.479-0.304-0.752-0.747
			c-0.112-0.182-0.124-0.314-0.035-0.396c1.687-1.734,2.021-3.429,1.001-5.083c-1.006-1.634-1.716-2.38-2.129-2.236
			c-0.665,0.186-1.612,0.658-2.842,1.416l-10.924,6.729c-1.009,0.622-1.777,1.205-2.302,1.752c-0.117,0.127-0.107,0.504,0.028,1.131
			c0.135,0.626,0.259,1.03,0.371,1.211c0.05,0.081-0.117,0.239-0.5,0.476c-0.242,0.149-0.437,0.24-0.582,0.275
			c-0.087-0.142-0.419-0.772-0.998-1.891c-0.578-1.119-1.028-1.94-1.351-2.465c-0.335-0.545-0.862-1.32-1.579-2.326
			c-0.716-1.006-1.172-1.644-1.366-1.913c0.031-0.131,0.167-0.271,0.41-0.419c0.424-0.261,0.654-0.361,0.691-0.301
			c0.137,0.222,0.452,0.542,0.947,0.961c0.494,0.419,0.841,0.609,1.04,0.57c0.631-0.194,1.452-0.602,2.46-1.224l10.955-6.747
			c1.574-0.969,2.452-1.621,2.635-1.956c0.083-0.136,0.135-0.244,0.155-0.325c0.019-0.081-0.054-0.336-0.219-0.763
			c-0.166-0.427-0.472-1.003-0.919-1.729c-0.51-0.827-1.153-1.363-1.93-1.608s-1.787-0.179-3.03,0.197
			c-0.114,0.042-0.226-0.028-0.337-0.21c-0.273-0.443-0.383-0.779-0.329-1.008l5.287-2.463c0.324,1.024,0.643,1.788,0.953,2.293
			C337.528,713.085,338.178,714.208,338.956,715.606z"/>
		<path fill="#222222" d="M355.676,739.519c0.515,0.618,0.976,1.33,1.382,2.132c0.406,0.803,0.726,1.678,0.958,2.624
			s0.217,1.9-0.047,2.86c-0.265,0.96-0.816,1.789-1.653,2.486c-1.22,1.016-2.581,1.547-4.083,1.595s-2.73-0.225-3.685-0.817
			c-0.176-0.1-0.299-0.044-0.369,0.169c-0.34,0.961-0.616,1.769-0.827,2.422c-0.211,0.654-0.423,1.4-0.634,2.239
			c-0.211,0.838-0.392,1.521-0.541,2.045c-0.295,1.016-0.431,2.14-0.409,3.369c0.022,1.23,0.321,2.191,0.897,2.884
			c-0.031,0.148-0.165,0.321-0.401,0.519c-0.201,0.167-0.413,0.281-0.637,0.345c-0.249-0.225-0.532-0.527-0.851-0.91
			c-0.743-0.893-1.334-1.779-1.775-2.661c-0.441-0.881-0.738-1.636-0.891-2.264c-0.153-0.629-0.197-1.348-0.131-2.157
			c0.065-0.811,0.153-1.445,0.263-1.907c0.109-0.46,0.295-1.108,0.557-1.942c0.139-0.425,0.315-0.973,0.529-1.643
			c0.212-0.67,0.378-1.202,0.499-1.595c0.12-0.393,0.242-0.811,0.367-1.253c0.124-0.443,0.203-0.793,0.235-1.051
			c0.032-0.258,0.028-0.448-0.011-0.569c-0.027-0.069-0.102-0.178-0.223-0.323c-0.137-0.164-0.351-0.124-0.642,0.118l-3.715,3.092
			c-0.929,0.773-1.623,1.459-2.081,2.056c-0.173,0.236-0.096,0.682,0.231,1.334c0.327,0.652,0.604,1.115,0.832,1.388
			c0.06,0.073-0.083,0.254-0.428,0.542c-0.219,0.182-0.398,0.3-0.537,0.354c-1.71-2.276-2.815-3.715-3.315-4.316l-3.483-3.852
			c0.012-0.134,0.136-0.299,0.374-0.495c0.364-0.304,0.576-0.419,0.637-0.346c0.182,0.219,0.529,0.507,1.043,0.865
			s0.867,0.504,1.058,0.438c0.509-0.239,1.356-0.852,2.54-1.837l10.326-8.595c1.001-0.834,1.666-1.479,1.994-1.938
			c0.1-0.176,0.04-0.581-0.179-1.215c-0.22-0.635-0.413-1.052-0.58-1.252c-0.061-0.073,0.073-0.246,0.401-0.519
			c0.291-0.242,0.487-0.359,0.587-0.35c1.303,1.751,2.372,3.127,3.206,4.129c0.409,0.491,0.933,1.111,1.571,1.859
			C354.675,738.324,355.222,738.972,355.676,739.519z M353.833,740.359c-0.531-0.638-0.952-0.996-1.265-1.075
			c-0.313-0.079-1.296,0.555-2.95,1.9l-2.95,2.456c-0.273,0.227-0.465,0.44-0.576,0.641c-0.111,0.2-0.15,0.395-0.117,0.583
			c0.033,0.188,0.086,0.345,0.159,0.469c0.073,0.124,0.177,0.269,0.313,0.433l0.614,0.737c0.591,0.71,1.359,1.003,2.304,0.88
			c0.945-0.124,1.927-0.61,2.947-1.46C354.736,743.907,355.243,742.053,353.833,740.359z"/>
		<path fill="#222222" d="M359.785,776.086c0.382,0.354,0.85,0.634,1.403,0.84c0.552,0.205,0.958,0.169,1.215-0.109
			c0.032-0.035,0.354-0.818,0.967-2.351l0.981-2.628c-0.006-0.134-0.034-0.226-0.086-0.273c-0.314-0.323-1.141-1.105-2.479-2.345
			c-1.147-1.063-2.033-1.867-2.657-2.414c-0.07-0.064-0.171-0.077-0.304-0.039l-2.696,1.185c-1.073,0.46-1.738,0.829-1.995,1.107
			c-0.258,0.278-0.302,0.64-0.134,1.086c0.167,0.446,0.357,0.792,0.567,1.035s0.402,0.445,0.576,0.606
			c0.036,0.066-0.066,0.229-0.308,0.49c-0.242,0.26-0.428,0.427-0.56,0.499c-0.209-0.228-0.629-0.689-1.26-1.386
			c-0.63-0.697-1.163-1.247-1.597-1.649s-0.984-0.855-1.648-1.358c-0.665-0.503-1.17-0.898-1.517-1.187
			c-0.005-0.135,0.081-0.297,0.258-0.488c0.338-0.364,0.524-0.531,0.56-0.499c0.208,0.193,0.641,0.424,1.296,0.692
			s1.133,0.364,1.432,0.285c0.332-0.08,0.713-0.203,1.143-0.37c0.429-0.167,0.776-0.307,1.041-0.417l0.42-0.192l18.033-7.905
			c0.609-0.274,1.14-0.203,1.592,0.216c0.261,0.242,0.365,0.549,0.312,0.919l-6.903,18.17c-0.411,1.104-0.784,2.083-1.12,2.935
			c-0.154,0.375-0.064,0.854,0.269,1.436c0.332,0.583,0.62,0.986,0.863,1.212c0.069,0.064-0.033,0.245-0.306,0.54
			c-0.274,0.296-0.453,0.453-0.535,0.473c-0.07-0.064-0.572-0.595-1.507-1.59c-0.936-0.995-1.628-1.702-2.08-2.121
			c-0.122-0.112-1.499-1.259-4.13-3.438c-0.005-0.135,0.125-0.345,0.391-0.631C359.547,776.133,359.715,776.021,359.785,776.086z
			 M361.379,765.789c0.473,0.535,1.092,1.157,1.857,1.866c0.695,0.644,1.328,1.198,1.899,1.663l0.199-0.059l2.447-6.405
			l-6.357,2.782C361.359,765.706,361.344,765.757,361.379,765.789z"/>
		<path fill="#222222" d="M388.89,771.371l5.092,3.51c3.18,2.191,5.019,4.847,5.516,7.967c0.497,3.12-0.128,5.947-1.876,8.483
			c-1.936,2.81-4.467,4.54-7.592,5.191c-3.125,0.652-6.268-0.111-9.429-2.289c-0.371-0.256-1.114-0.805-2.232-1.646
			c-1.118-0.842-2.018-1.499-2.7-1.969l-4.394-2.77c-0.024-0.132,0.051-0.324,0.226-0.578c0.269-0.39,0.442-0.559,0.521-0.505
			c0.234,0.162,0.647,0.346,1.239,0.552c0.591,0.207,0.97,0.252,1.136,0.136c0.426-0.368,1.076-1.186,1.951-2.454l7.624-11.062
			c0.739-1.073,1.205-1.874,1.397-2.403c0.049-0.196-0.118-0.57-0.5-1.122c-0.383-0.551-0.682-0.901-0.896-1.049
			c-0.078-0.054,0.004-0.257,0.246-0.607c0.215-0.312,0.372-0.478,0.471-0.496C386.182,769.434,387.583,770.471,388.89,771.371z
			 M388.127,776.673l-7.825,11.354c-0.874,1.269-1.257,2.012-1.148,2.23c0.254,0.549,1.269,1.436,3.044,2.659
			c1.639,1.13,3.391,1.301,5.257,0.515c1.865-0.786,3.759-2.573,5.682-5.363c1.479-2.146,2.26-4.292,2.342-6.437
			c0.082-2.145-0.715-3.795-2.393-4.951l-0.146-0.101c-1.658-1.144-2.712-1.639-3.161-1.488
			C389.283,775.268,388.733,775.795,388.127,776.673z"/>
		<path fill="#222222" d="M409.426,790.071c0.701-1.345,1.044-2.208,1.03-2.59c-0.018-0.223-0.222-0.55-0.611-0.98
			c-0.391-0.43-0.701-0.706-0.932-0.826c-0.084-0.044-0.033-0.244,0.153-0.602c0.197-0.378,0.327-0.577,0.392-0.598
			c0.304,0.186,0.789,0.485,1.455,0.899s1.169,0.717,1.511,0.908c0.341,0.191,0.842,0.446,1.505,0.765
			c0.42,0.22,1.924,0.924,4.51,2.112c-0.036,0.222-0.103,0.428-0.201,0.616c-0.208,0.399-0.354,0.577-0.438,0.533
			c-0.189-0.099-0.614-0.206-1.274-0.324c-0.661-0.116-1.05-0.112-1.168,0.013c-0.195,0.219-0.431,0.543-0.708,0.973
			c-0.278,0.431-0.499,0.803-0.663,1.118l-0.247,0.473l-6.082,11.659c-0.625,1.197-1.023,2.166-1.194,2.904
			c-0.035,0.169,0.167,0.487,0.604,0.956c0.437,0.469,0.75,0.752,0.939,0.851c0.084,0.044,0.022,0.266-0.186,0.665
			c-0.132,0.252-0.251,0.43-0.359,0.534c-0.147-0.077-0.755-0.448-1.825-1.112c-1.07-0.665-1.877-1.14-2.423-1.425
			c-0.567-0.296-1.417-0.691-2.547-1.188c-1.131-0.497-1.849-0.812-2.154-0.943c-0.04-0.128,0.006-0.317,0.137-0.57
			c0.23-0.44,0.376-0.645,0.439-0.612c0.231,0.121,0.666,0.234,1.306,0.341c0.639,0.106,1.034,0.092,1.185-0.044
			c0.443-0.49,0.955-1.292,1.536-2.405L409.426,790.071z"/>
		<path fill="#222222" d="M430.387,794.518c1.471,0.632,2.672,1.124,3.603,1.476c0.931,0.352,2.162,0.779,3.695,1.282
			c1.532,0.503,2.764,0.931,3.695,1.282c0.554,0.21,1.364,0.377,2.432,0.502l-1.429,5.69c-0.214,0.097-0.565,0.053-1.052-0.131
			c-0.199-0.076-0.29-0.173-0.27-0.292c0.275-2.404-0.496-3.949-2.313-4.636c-1.795-0.679-2.812-0.836-3.052-0.47
			c-0.412,0.554-0.874,1.506-1.384,2.858l-4.536,12.001c-0.419,1.108-0.67,2.039-0.752,2.793c-0.015,0.173,0.223,0.465,0.713,0.878
			s0.834,0.657,1.034,0.732c0.088,0.033,0.053,0.262-0.106,0.683c-0.101,0.266-0.198,0.457-0.292,0.573
			c-0.155-0.06-0.804-0.355-1.945-0.888c-1.142-0.532-2-0.907-2.576-1.125c-0.599-0.227-1.489-0.519-2.67-0.877
			c-1.182-0.358-1.932-0.585-2.251-0.68c-0.055-0.122-0.032-0.316,0.068-0.582c0.176-0.466,0.297-0.686,0.363-0.66
			c0.244,0.092,0.689,0.152,1.337,0.183c0.647,0.029,1.038-0.032,1.171-0.185c0.381-0.54,0.781-1.363,1.201-2.472l4.549-12.035
			c0.653-1.729,0.95-2.781,0.89-3.159c-0.017-0.158-0.042-0.275-0.076-0.352c-0.035-0.076-0.248-0.232-0.64-0.47
			c-0.392-0.236-0.986-0.506-1.784-0.808c-0.909-0.343-1.746-0.374-2.51-0.094c-0.765,0.281-1.524,0.95-2.279,2.008
			c-0.064,0.103-0.196,0.116-0.395,0.04c-0.488-0.184-0.78-0.383-0.876-0.597l2.68-5.181c0.883,0.613,1.602,1.023,2.156,1.233
			C427.715,793.394,428.916,793.886,430.387,794.518z"/>
		<path fill="#222222" d="M452.01,806.748c0.359-1.473,0.485-2.394,0.38-2.761c-0.07-0.212-0.346-0.48-0.828-0.806
			c-0.482-0.324-0.85-0.518-1.103-0.579c-0.092-0.022-0.091-0.229,0.005-0.621c0.101-0.414,0.179-0.639,0.237-0.674
			c0.339,0.107,0.882,0.283,1.628,0.525s1.307,0.416,1.684,0.52c0.377,0.104,0.925,0.231,1.645,0.383
			c0.46,0.111,2.088,0.436,4.885,0.97c0.019,0.225,0.002,0.44-0.048,0.647c-0.107,0.438-0.207,0.645-0.298,0.622
			c-0.207-0.051-0.646-0.053-1.314-0.009c-0.669,0.044-1.047,0.142-1.132,0.291c-0.136,0.26-0.288,0.631-0.455,1.114
			c-0.167,0.484-0.292,0.898-0.376,1.244l-0.126,0.518l-3.113,12.776c-0.319,1.312-0.475,2.348-0.464,3.106
			c0.006,0.172,0.278,0.434,0.815,0.783c0.537,0.351,0.909,0.551,1.116,0.602c0.092,0.022,0.084,0.253-0.022,0.689
			c-0.067,0.276-0.141,0.478-0.22,0.604c-0.162-0.039-0.841-0.254-2.038-0.643c-1.198-0.389-2.096-0.657-2.694-0.803
			c-0.622-0.151-1.541-0.333-2.757-0.544c-1.217-0.211-1.989-0.345-2.317-0.399c-0.07-0.115-0.071-0.31-0.004-0.586
			c0.118-0.483,0.211-0.717,0.28-0.7c0.253,0.062,0.703,0.067,1.349,0.018c0.646-0.05,1.026-0.158,1.141-0.326
			c0.312-0.582,0.617-1.482,0.915-2.703L452.01,806.748z"/>
		<path fill="#222222" d="M468.396,825.936c-1.962-2.582-2.756-5.521-2.384-8.817c0.372-3.296,1.803-5.989,4.292-8.081
			c2.49-2.091,5.288-2.962,8.396-2.61c3.108,0.351,5.647,1.824,7.62,4.419c1.972,2.596,2.772,5.541,2.4,8.837
			c-0.373,3.297-1.809,5.983-4.308,8.062c-2.5,2.079-5.304,2.942-8.412,2.592C472.893,829.984,470.358,828.519,468.396,825.936z
			 M477.948,808.345c-1.248-0.142-2.335,0.195-3.261,1.009c-0.927,0.813-1.623,1.861-2.09,3.144
			c-0.467,1.283-0.796,2.771-0.987,4.467c-0.136,1.2-0.158,2.396-0.065,3.587c0.092,1.19,0.305,2.372,0.637,3.541
			c0.333,1.171,0.896,2.152,1.688,2.945c0.792,0.793,1.766,1.254,2.919,1.385c1.766,0.199,3.191-0.546,4.276-2.235
			s1.775-3.842,2.07-6.455c0.146-1.294,0.185-2.536,0.117-3.724c-0.068-1.188-0.265-2.355-0.588-3.501
			c-0.324-1.145-0.885-2.09-1.683-2.836S479.171,808.482,477.948,808.345z"/>
		<path fill="#222222" d="M514.84,812.268c-0.054-1.35-0.242-2.195-0.564-2.538c-0.223-0.252-0.677-0.471-1.359-0.657
			c-0.684-0.186-1.167-0.273-1.451-0.262c-0.095,0.004-0.162-0.189-0.201-0.579c-0.04-0.39-0.025-0.633,0.042-0.73
			c2.186,0.103,3.752,0.134,4.698,0.096c0.592-0.023,1.401-0.097,2.428-0.222c1.027-0.124,1.682-0.203,1.965-0.238
			c0.102,0.186,0.158,0.396,0.168,0.633c0.018,0.45-0.032,0.678-0.15,0.683c-1.303,0.052-2.27,0.481-2.901,1.29
			c-0.315,0.416-0.446,1.286-0.393,2.612l0.541,13.494c0.034,0.853,0.147,2.508,0.341,4.966c-0.091,0.099-0.385,0.158-0.882,0.178
			c-0.284,0.012-0.662-0.245-1.134-0.772l-15.174-17.39l0.546,13.602c0.052,1.302,0.18,2.139,0.385,2.51
			c0.229,0.395,0.739,0.688,1.529,0.881c0.79,0.194,1.363,0.283,1.718,0.27c0.071-0.003,0.12,0.196,0.148,0.599
			s0.021,0.651-0.022,0.748c-0.214,0.008-0.914-0.012-2.102-0.059s-2.089-0.059-2.705-0.033c-0.616,0.024-1.396,0.098-2.339,0.218
			c-0.944,0.121-1.628,0.201-2.053,0.242c-0.074-0.068-0.118-0.279-0.132-0.635c-0.018-0.449,0.008-0.676,0.079-0.679
			c0.236-0.01,0.508-0.044,0.814-0.104s0.691-0.212,1.156-0.456c0.464-0.243,0.796-0.548,0.995-0.911
			c0.221-0.388,0.305-1.257,0.251-2.606l-0.56-13.956c-0.049-1.231-0.261-2.064-0.634-2.5c-0.125-0.161-0.545-0.286-1.26-0.377
			c-0.715-0.09-1.238-0.128-1.569-0.114c-0.095,0.003-0.162-0.189-0.201-0.579c-0.04-0.39-0.014-0.634,0.077-0.732
			c0.379,0.009,1.134,0.032,2.262,0.069c1.127,0.038,1.999,0.044,2.615,0.02c0.804-0.032,1.96-0.173,3.468-0.424
			c0.435,0.789,1.269,1.924,2.502,3.403c1.233,1.48,2.818,3.308,4.755,5.483c1.938,2.175,3.479,3.963,4.626,5.363
			c0.04-0.168,0.045-0.654,0.013-1.459L514.84,812.268z"/>
		<path fill="#222222" d="M545.814,803.978c0.914-1.237,2.232-2.116,3.957-2.637c1.724-0.521,3.223-0.539,4.496-0.055
			c1.272,0.484,2.091,1.353,2.45,2.604c0.4,1.389,0.328,2.68-0.217,3.872c-0.544,1.191-1.453,2.489-2.727,3.891
			c1.33,1.195,3.102,2.597,5.314,4.203c0.801-1.759,1.172-2.741,1.112-2.946c-0.065-0.227-0.22-0.355-0.462-0.385
			c-0.242-0.028-0.512,0-0.808,0.085s-0.456,0.131-0.479,0.138c-0.098-0.169-0.185-0.385-0.26-0.646s-0.082-0.414-0.021-0.456
			l3.528-0.979c1.001-0.288,2.255-0.687,3.762-1.193c0.127,0.013,0.239,0.189,0.338,0.531c0.124,0.433,0.102,0.698-0.067,0.796
			c-1.093,0.487-1.793,0.923-2.102,1.308c-0.11,0.13-0.328,0.551-0.654,1.261s-0.667,1.493-1.025,2.348
			c-0.358,0.855-0.626,1.444-0.805,1.767l0.229,0.155c0.153,0.104,0.29,0.194,0.411,0.271c0.12,0.076,0.281,0.165,0.483,0.268
			s0.387,0.185,0.553,0.248c0.166,0.062,0.355,0.101,0.568,0.113s0.411-0.007,0.594-0.06c0.455-0.131,0.83-0.455,1.126-0.972
			c0.295-0.516,0.5-1,0.617-1.453c0.158-0.046,0.386-0.006,0.681,0.118c0.295,0.125,0.466,0.268,0.511,0.426
			c-0.031,0.577-0.36,1.51-0.987,2.8c-0.628,1.29-1.454,2.082-2.479,2.377c-0.751,0.217-1.508,0.268-2.268,0.153
			s-1.334-0.287-1.722-0.521l-0.581-0.351c-1.091,1.695-2.752,2.863-4.983,3.505c-1.821,0.524-3.538,0.514-5.15-0.034
			c-1.612-0.546-2.693-1.776-3.243-3.688c-0.236-0.82-0.3-1.621-0.192-2.404s0.39-1.555,0.85-2.315
			c0.459-0.761,0.841-1.339,1.146-1.735c0.305-0.396,0.737-0.908,1.296-1.538c-0.095-0.071-0.295-0.254-0.602-0.548
			s-0.53-0.514-0.671-0.658c-0.14-0.145-0.346-0.368-0.618-0.672s-0.49-0.567-0.653-0.792s-0.326-0.492-0.49-0.803
			c-0.163-0.31-0.29-0.625-0.382-0.943C544.693,806.698,544.9,805.215,545.814,803.978z M550.189,803.181
			c-0.683,0.196-1.098,0.6-1.242,1.208c-0.146,0.609-0.11,1.289,0.106,2.04c0.078,0.273,0.203,0.559,0.375,0.854
			c0.171,0.296,0.377,0.582,0.617,0.857c0.239,0.276,0.445,0.501,0.618,0.673s0.409,0.394,0.709,0.665
			c0.301,0.271,0.468,0.427,0.504,0.465c0.672-0.834,1.12-1.592,1.344-2.272c0.223-0.681,0.2-1.487-0.068-2.421
			c-0.184-0.638-0.547-1.193-1.09-1.665C551.52,803.112,550.896,802.978,550.189,803.181z M556.832,819.835
			c-0.395-0.257-1.11-0.814-2.146-1.676c-1.037-0.86-1.979-1.649-2.826-2.367l-1.237-1.086c-0.831,1.053-0.945,2.627-0.343,4.721
			c0.348,1.208,0.917,2.029,1.709,2.468c0.791,0.438,1.631,0.528,2.52,0.273C555.577,821.859,556.353,821.082,556.832,819.835z"/>
		<path fill="#222222" d="M587.12,786.424c0.6-0.334,1.249-0.716,1.945-1.145c0.697-0.428,1.356-0.815,1.978-1.161
			c1.221-0.68,2.462-1.153,3.724-1.422c1.261-0.268,2.545-0.177,3.854,0.274c1.309,0.451,2.331,1.34,3.069,2.664
			c0.933,1.677,1.093,3.486,0.479,5.428c-0.613,1.942-1.842,3.426-3.685,4.451c-0.331,0.185-0.691,0.317-1.08,0.398
			s-0.692,0.121-0.909,0.119c-0.218,0-0.364-0.021-0.44-0.06c-0.152-0.078-0.331-0.276-0.535-0.597
			c-0.205-0.319-0.257-0.509-0.152-0.566c0.36,0.017,0.872-0.16,1.535-0.529c1.739-0.968,1.825-2.859,0.258-5.675
			c-1.579-2.837-3.321-3.725-5.226-2.664c-0.725,0.403-1.154,0.751-1.29,1.043c-0.145,0.325,0.296,1.408,1.321,3.251l6.188,11.117
			c0.588,1.056,1.133,1.864,1.635,2.426c0.201,0.214,0.652,0.221,1.354,0.02c0.702-0.201,1.208-0.388,1.519-0.561
			c0.082-0.046,0.233,0.128,0.452,0.521c0.139,0.248,0.222,0.446,0.249,0.594c-2.553,1.259-4.171,2.078-4.854,2.458l-4.43,2.71
			c-0.13-0.036-0.269-0.189-0.419-0.458c-0.229-0.414-0.304-0.645-0.221-0.69c0.248-0.139,0.596-0.427,1.043-0.865
			s0.656-0.759,0.626-0.959c-0.141-0.545-0.586-1.49-1.335-2.836l-6.534-11.738c-0.634-1.139-1.146-1.911-1.534-2.319
			c-0.154-0.131-0.564-0.146-1.228-0.049c-0.664,0.099-1.11,0.211-1.338,0.338c-0.083,0.046-0.228-0.117-0.435-0.489
			c-0.185-0.331-0.264-0.546-0.235-0.643C584.39,787.877,585.939,787.081,587.12,786.424z"/>
		<path fill="#222222" d="M611.582,770.839c0.641-0.487,1.372-0.916,2.191-1.286c0.82-0.37,1.708-0.65,2.664-0.841
			s1.908-0.133,2.855,0.174s1.751,0.895,2.41,1.762c0.96,1.265,1.431,2.647,1.411,4.15c-0.019,1.502-0.346,2.717-0.979,3.646
			c-0.108,0.171-0.058,0.297,0.151,0.375c0.945,0.384,1.74,0.695,2.384,0.935c0.644,0.24,1.38,0.485,2.208,0.732
			c0.828,0.249,1.502,0.459,2.02,0.631c1.002,0.341,2.118,0.526,3.348,0.559c1.23,0.033,2.203-0.223,2.92-0.768
			c0.147,0.037,0.314,0.178,0.501,0.423c0.157,0.208,0.263,0.426,0.316,0.652c-0.236,0.238-0.552,0.508-0.947,0.81
			c-0.925,0.702-1.837,1.254-2.737,1.655s-1.668,0.664-2.302,0.789c-0.635,0.125-1.354,0.136-2.161,0.034
			c-0.806-0.102-1.437-0.217-1.893-0.347c-0.455-0.13-1.095-0.344-1.916-0.643c-0.418-0.158-0.957-0.358-1.617-0.602
			c-0.66-0.241-1.184-0.432-1.571-0.569c-0.387-0.137-0.799-0.277-1.235-0.422c-0.438-0.144-0.783-0.238-1.04-0.282
			c-0.256-0.043-0.445-0.047-0.568-0.014c-0.071,0.024-0.183,0.094-0.333,0.208c-0.17,0.129-0.14,0.345,0.089,0.646l2.925,3.849
			c0.73,0.962,1.385,1.686,1.961,2.17c0.229,0.184,0.676,0.127,1.342-0.172c0.667-0.298,1.142-0.554,1.425-0.77
			c0.075-0.057,0.249,0.094,0.521,0.452c0.172,0.227,0.282,0.41,0.33,0.553c-2.35,1.606-3.836,2.646-4.459,3.119l-4.003,3.309
			c-0.133-0.018-0.292-0.149-0.479-0.395c-0.286-0.377-0.393-0.595-0.316-0.652c0.227-0.172,0.53-0.507,0.91-1.004
			c0.382-0.497,0.543-0.844,0.484-1.037c-0.216-0.521-0.79-1.394-1.722-2.62l-8.128-10.697c-0.788-1.037-1.403-1.729-1.847-2.078
			c-0.171-0.107-0.578-0.066-1.222,0.125s-1.068,0.365-1.276,0.523c-0.075,0.058-0.242-0.084-0.5-0.424
			c-0.229-0.302-0.337-0.503-0.323-0.603c1.807-1.224,3.229-2.23,4.268-3.019c0.509-0.387,1.151-0.882,1.928-1.487
			C610.345,771.786,611.016,771.269,611.582,770.839z M612.34,772.718c-0.661,0.502-1.037,0.907-1.13,1.215
			c-0.093,0.31,0.496,1.319,1.768,3.032l2.322,3.056c0.215,0.283,0.419,0.484,0.614,0.604c0.195,0.119,0.388,0.167,0.577,0.142
			c0.189-0.024,0.348-0.07,0.476-0.138c0.127-0.067,0.276-0.165,0.445-0.294l0.765-0.581c0.735-0.559,1.062-1.312,0.98-2.263
			c-0.081-0.949-0.523-1.952-1.326-3.009C615.925,771.973,614.095,771.385,612.34,772.718z"/>
		<path fill="#222222" d="M629.99,761.892c-1.044-1.099-1.75-1.703-2.115-1.813c-0.217-0.056-0.592,0.031-1.126,0.261
			c-0.533,0.229-0.895,0.434-1.084,0.613c-0.068,0.065-0.241-0.048-0.52-0.341c-0.293-0.309-0.439-0.496-0.438-0.563
			c0.274-0.228,0.715-0.59,1.322-1.085c0.607-0.496,1.058-0.874,1.349-1.135c0.292-0.261,0.695-0.652,1.212-1.176
			c0.343-0.326,1.497-1.521,3.46-3.582c0.198,0.105,0.371,0.235,0.518,0.391c0.311,0.326,0.431,0.522,0.362,0.587
			c-0.154,0.147-0.395,0.514-0.72,1.101c-0.324,0.587-0.447,0.957-0.367,1.109c0.145,0.255,0.375,0.584,0.691,0.985
			c0.316,0.402,0.597,0.731,0.842,0.989l0.367,0.387l9.059,9.532c0.93,0.979,1.717,1.671,2.36,2.072c0.148,0.088,0.515,0,1.1-0.262
			s0.955-0.466,1.109-0.612c0.068-0.065,0.259,0.065,0.568,0.392c0.196,0.206,0.325,0.377,0.389,0.513
			c-0.12,0.114-0.668,0.569-1.644,1.365c-0.976,0.797-1.687,1.407-2.133,1.831c-0.464,0.441-1.114,1.116-1.95,2.024
			c-0.836,0.909-1.366,1.486-1.59,1.731c-0.135-0.003-0.299-0.107-0.495-0.313c-0.343-0.361-0.488-0.565-0.437-0.615
			c0.188-0.179,0.438-0.554,0.745-1.124s0.423-0.949,0.343-1.136c-0.32-0.577-0.912-1.321-1.777-2.232L629.99,761.892z"/>
		<path fill="#222222" d="M640.562,744.188l3.906-4.794c2.439-2.994,5.233-4.614,8.383-4.86c3.15-0.246,5.919,0.604,8.307,2.549
			c2.646,2.155,4.167,4.816,4.566,7.984c0.399,3.167-0.613,6.238-3.037,9.215c-0.284,0.349-0.892,1.046-1.82,2.093
			s-1.655,1.892-2.179,2.534l-3.112,4.157c-0.133,0.014-0.318-0.076-0.558-0.271c-0.367-0.299-0.521-0.485-0.462-0.559
			c0.18-0.221,0.396-0.617,0.649-1.19s0.329-0.947,0.227-1.122c-0.333-0.454-1.096-1.168-2.29-2.141l-10.416-8.485
			c-1.01-0.823-1.771-1.352-2.284-1.586c-0.191-0.064-0.577,0.072-1.157,0.409c-0.581,0.338-0.953,0.606-1.118,0.809
			c-0.06,0.074-0.255-0.024-0.585-0.294c-0.294-0.239-0.446-0.409-0.457-0.509C638.414,746.731,639.56,745.419,640.562,744.188z
			 M645.786,745.372l10.69,8.709c1.194,0.974,1.904,1.414,2.131,1.324c0.568-0.21,1.533-1.15,2.896-2.822
			c1.257-1.543,1.568-3.275,0.934-5.198c-0.634-1.922-2.265-3.953-4.892-6.094c-2.021-1.646-4.097-2.596-6.228-2.851
			c-2.131-0.253-3.84,0.409-5.127,1.989l-0.112,0.138c-1.272,1.562-1.851,2.572-1.736,3.032
			C644.478,744.107,644.959,744.698,645.786,745.372z"/>
		<path fill="#222222" d="M657.173,721.998c0.542-0.89,1.474-2.473,2.792-4.75c1.318-2.275,2.329-3.991,3.032-5.144
			c0.214,0.104,1.89,0.723,5.027,1.857c0.04,0.164-0.052,0.427-0.273,0.791c-0.137,0.223-0.293,0.321-0.472,0.295
			c-1.003-0.084-2.031,0.122-3.083,0.618c-1.052,0.497-1.818,1.14-2.299,1.929l-0.703,1.152c-0.777,1.274-1.046,2.013-0.809,2.213
			c0.424,0.397,1.183,0.93,2.274,1.596l4.674,2.849c0.121,0.074,0.447-0.323,0.978-1.193l0.98-1.608
			c0.765-1.255,1.144-1.967,1.137-2.138c-0.02-0.15-0.264-0.41-0.732-0.779c-0.278-0.226-0.534-0.465-0.769-0.719
			c-0.129-0.106-0.107-0.301,0.065-0.585c0.209-0.344,0.396-0.535,0.559-0.575l5.735,3.497c0.031,0.131-0.058,0.367-0.268,0.711
			c-0.16,0.264-0.34,0.376-0.539,0.338c-0.332-0.092-0.618-0.169-0.857-0.231s-0.422-0.104-0.548-0.126
			c-0.126-0.021-0.244-0.03-0.356-0.03c-0.111,0.002-0.184,0.007-0.216,0.014c-0.033,0.009-0.083,0.033-0.15,0.075
			c-0.067,0.043-0.117,0.068-0.149,0.075c-0.322,0.165-0.885,0.904-1.687,2.219c-0.888,1.457-1.241,2.241-1.059,2.352l4.673,2.85
			c0.972,0.592,1.739,0.949,2.303,1.07c0.386,0.097,0.967-0.492,1.744-1.768l0.48-0.788c0.765-1.255,1.192-2.548,1.283-3.88
			c0.027-0.455-0.079-1.054-0.319-1.798c-0.24-0.743-0.601-1.427-1.08-2.053c-0.108-0.094-0.083-0.272,0.077-0.535
			c0.296-0.486,0.542-0.752,0.737-0.8c2.188,2.693,3.595,4.301,4.221,4.821c-0.629,1.031-1.648,2.657-3.059,4.879
			c-1.409,2.221-2.539,4.029-3.391,5.425l-2.519,4.541c-0.131,0.032-0.327-0.032-0.59-0.192c-0.405-0.247-0.583-0.41-0.533-0.491
			c0.147-0.243,0.309-0.666,0.481-1.268c0.173-0.603,0.197-0.983,0.072-1.143c-0.392-0.405-1.244-1.009-2.56-1.811l-11.471-6.993
			c-1.112-0.678-1.938-1.099-2.478-1.261c-0.199-0.038-0.563,0.149-1.093,0.562c-0.528,0.413-0.861,0.73-0.997,0.953
			c-0.049,0.081-0.256,0.011-0.62-0.212c-0.323-0.196-0.497-0.345-0.521-0.442C655.39,724.811,656.346,723.354,657.173,721.998z"/>
	</g>
	<g>
		<polygon fill="#222222" points="483.749,333.494 500,321.682 516.246,333.494 510.047,314.382 526.295,302.574 506.206,302.574 
			500,283.464 493.792,302.574 473.7,302.574 489.953,314.382 		"/>
		<polygon fill="#222222" points="362.51,353.917 366.685,373.57 374.859,355.215 394.837,357.314 379.911,343.869 388.083,325.515 
			370.679,335.564 355.751,322.119 359.929,341.768 342.532,351.817 		"/>
		<polygon fill="#222222" points="625.139,355.215 633.306,373.57 637.493,353.917 657.471,351.817 640.069,341.77 644.251,322.119 
			629.325,335.564 611.918,325.515 620.095,343.869 605.158,357.314 		"/>
	</g>
</g>
</svg>
